<svg xmlns="http://www.w3.org/2000/svg" width="560" height="560" preserveAspectRatio="xMidYMid meet" version="1.0" viewBox="0 0 420 420"><metadata>Created by potrace 1.14, written by Peter Selinger 2001-2017</metadata><g fill="#000" stroke="none"><path d="M1477 3481 c-30 -46 -34 -69 -12 -77 9 -4 13 -14 10 -28 -4 -16 2 -25 30 -38 20 -10 55 -18 78 -19 23 0 61 -8 83 -17 46 -19 124 -85 124 -105 0 -7 -55 -46 -122 -87 -164 -100 -243 -178 -303 -302 -25 -50 -45 -97 -45 -103 0 -6 -14 -24 -31 -41 -40 -38 -52 -62 -79 -159 -31 -114 -33 -115 -124 -72 -42 20 -108 57 -148 83 -68 43 -74 45 -108 35 -52 -15 -80 -45 -80 -86 0 -35 -2 -37 -70 -50 -26 -6 -60 -32 -130 -99 -103 -99 -187 -166 -263 -211 -27 -15 -58 -42 -70 -60 -11 -17 -32 -39 -47 -47 -27 -15 -90 -100 -90 -120 0 -11 30 -7 99 12 54 15 65 26 66 62 0 31 2 33 42 39 36 4 55 17 115 75 99 95 224 193 277 217 82 36 102 4 117 -185 7 -95 14 -109 98 -193 42 -42 74 -65 104 -74 24 -7 46 -10 49 -7 7 7 -24 108 -40 131 -11 14 -25 19 -50 17 -43 -3 -61 16 -48 50 6 17 4 34 -6 58 -8 19 -21 57 -28 83 -10 41 -10 49 1 54 8 3 20 1 27 -5 34 -27 150 -82 212 -101 39 -12 93 -30 121 -42 39 -15 56 -18 77 -10 15 6 27 17 27 24 0 8 19 27 43 42 l42 27 -43 -44 -44 -45 29 -23 c78 -61 308 -149 463 -176 84 -15 116 -15 277 -4 100 7 199 9 219 6 42 -8 39 8 -4 26 -16 6 -22 12 -15 15 16 6 83 -34 83 -49 0 -6 15 -27 34 -48 18 -20 45 -68 60 -107 29 -77 72 -131 184 -236 56 -53 97 -80 189 -124 64 -31 130 -71 148 -88 35 -35 54 -104 75 -270 17 -128 27 -162 61 -198 17 -17 38 -44 46 -58 18 -30 74 -65 113 -71 35 -4 37 21 6 87 -22 49 -28 55 -55 55 -39 0 -45 11 -46 87 l-2 62 37 -29 c44 -35 124 -60 141 -43 8 8 6 20 -7 44 -33 65 -56 89 -85 89 -44 0 -59 10 -59 40 0 18 -14 44 -36 71 -48 57 -54 77 -54 163 0 64 -3 75 -25 96 -18 17 -25 34 -25 59 0 48 -32 99 -67 107 -15 3 -40 10 -55 16 l-26 10 4 136 c3 76 9 162 15 193 5 31 7 75 3 98 -4 24 -3 41 3 41 29 0 153 -117 244 -230 38 -47 63 -51 34 -6 -15 23 -16 26 -2 20 15 -5 27 -29 33 -61 6 -32 92 -131 162 -185 71 -55 82 -76 51 -101 l-23 -19 24 -19 c36 -29 66 -39 113 -39 137 0 182 161 79 281 -30 35 -34 44 -24 60 16 26 15 44 -4 60 -13 11 -17 10 -25 -4 -18 -32 -61 -19 -174 53 -117 73 -244 143 -285 155 -14 4 -70 30 -125 57 -85 43 -112 63 -185 138 -98 100 -141 124 -267 149 -113 22 -123 42 -30 59 l63 12 205 -67 c175 -58 214 -67 274 -67 112 1 249 21 301 43 30 14 58 19 78 16 29 -5 75 5 176 38 25 9 57 18 71 21 14 3 41 16 61 29 19 13 52 27 74 31 21 4 53 16 70 25 17 10 53 26 80 35 89 29 123 66 62 66 -40 0 -133 22 -236 54 -42 14 -178 57 -302 97 -124 39 -237 74 -252 76 -16 3 -28 10 -28 17 1 18 84 84 116 92 48 11 86 34 142 85 30 27 58 49 63 49 5 0 17 17 28 38 11 21 38 51 60 65 23 15 41 32 41 37 0 5 28 36 62 69 34 33 59 63 56 66 -4 4 -31 2 -60 -5 -29 -6 -197 -17 -373 -25 -347 -15 -675 -31 -878 -44 -94 -5 -131 -11 -138 -22 -5 -8 -14 -40 -20 -72 -7 -32 -16 -60 -20 -63 -14 -8 -10 -74 4 -80 7 -2 32 2 56 11 50 17 149 20 219 5 33 -8 57 -8 75 -1 35 13 36 41 2 41 -40 0 -29 17 15 23 43 6 103 43 97 61 -7 20 -80 38 -143 34 -48 -3 -61 -1 -57 9 3 8 -3 13 -18 13 -13 0 -30 4 -37 9 -27 17 18 21 61 6 23 -8 65 -15 92 -15 34 0 65 -8 97 -25 45 -24 49 -24 160 -15 523 44 657 53 633 41 -18 -9 -377 -41 -644 -58 -96 -6 -107 -9 -155 -40 -55 -37 -63 -47 -47 -58 17 -10 13 -23 -9 -27 -40 -6 -21 -23 52 -47 l73 -24 220 22 c121 12 231 21 245 20 38 -2 -110 -26 -238 -39 -163 -16 -174 -22 -83 -50 58 -18 86 -21 137 -16 69 7 83 2 32 -12 l-33 -9 35 -18 c58 -30 16 -29 -82 4 -175 57 -393 119 -478 136 -108 22 -174 15 -257 -25 -65 -32 -65 -32 -205 -219 -85 -114 -123 -135 -230 -127 -110 9 -144 25 -54 25 62 1 67 2 55 17 -12 15 -11 16 9 10 18 -6 21 -4 15 10 -6 16 -3 15 24 -4 45 -32 85 -13 88 43 0 6 10 11 23 13 12 2 22 10 22 18 0 8 5 14 10 14 14 0 12 27 -2 34 -7 2 -2 4 11 3 18 -2 28 6 40 30 9 18 22 33 29 33 6 0 12 7 12 15 0 9 7 18 15 21 21 8 19 31 -4 44 -11 5 -30 25 -42 42 -20 29 -17 28 24 -11 29 -28 51 -42 61 -38 17 7 22 37 7 37 -14 0 -70 49 -82 71 -15 29 -3 23 47 -25 26 -26 52 -42 60 -39 22 8 18 15 -41 76 -30 31 -55 62 -55 69 0 7 19 -10 43 -37 27 -30 48 -46 55 -41 22 13 13 32 -42 92 -68 74 -63 87 6 16 27 -28 54 -49 59 -46 21 13 6 44 -45 93 -62 58 -58 71 4 14 37 -33 43 -35 57 -21 18 19 9 58 -14 58 -8 0 -27 9 -43 20 -15 11 -40 24 -55 30 -15 6 -25 13 -23 16 3 3 34 -6 69 -20 66 -28 82 -27 57 1 -9 10 -22 38 -29 63 -16 58 -33 78 -52 61 -16 -12 -47 -5 -47 11 0 7 -17 8 -45 5 -34 -5 -45 -3 -45 7 0 9 14 12 50 10 55 -2 64 6 24 25 -20 9 -35 9 -66 -1 -30 -9 -44 -9 -58 0 -13 8 -94 11 -255 11 -130 0 -251 3 -269 6 -29 6 -35 3 -59 -34z m59 -24 c-4 -28 -36 -36 -36 -10 0 22 19 45 31 37 5 -3 7 -15 5 -27z m429 -34 c5 -18 2 -23 -10 -23 -9 0 -19 9 -22 20 -4 14 -11 19 -23 15 -30 -10 -32 13 -3 23 31 11 47 1 58 -35z m65 -14 c0 -5 -4 -9 -8 -9 -9 0 -32 44 -32 58 1 10 40 -38 40 -49z m-453 -32 c19 -14 5 -29 -20 -21 -29 9 -48 24 -42 34 6 9 44 2 62 -13z m173 -21 c0 -2 -7 -7 -16 -10 -8 -3 -12 -2 -9 4 6 10 25 14 25 6z m540 -6 c0 -5 -6 -10 -14 -10 -8 0 -18 5 -21 10 -3 6 3 10 14 10 12 0 21 -4 21 -10z m-320 -149 c0 -11 -53 -46 -153 -102 -118 -66 -269 -181 -301 -230 -57 -85 -86 -141 -80 -151 3 -5 18 -7 33 -4 19 5 22 4 10 -3 -9 -6 -38 -15 -65 -21 -27 -6 -57 -13 -66 -16 -10 -3 -18 -1 -18 4 0 6 16 14 36 19 21 4 40 15 44 23 4 8 21 42 36 74 54 111 134 179 384 327 41 24 75 51 75 58 0 8 9 17 20 22 27 10 45 11 45 0z m-95 -11 c-3 -5 -15 -10 -25 -10 -10 0 -22 5 -25 10 -4 6 7 10 25 10 18 0 29 -4 25 -10z m1630 -71 c-133 -19 -447 -49 -550 -53 -95 -4 -101 -4 -45 4 36 5 162 18 280 29 118 12 229 22 245 24 17 2 53 4 80 4 l50 0 -60 -8z m-38 -95 c-3 -3 -12 -4 -19 -1 -8 3 -5 6 6 6 11 1 17 -2 13 -5z m-54 -11 c-7 -2 -19 -2 -25 0 -7 3 -2 5 12 5 14 0 19 -2 13 -5z m-1228 -73 c10 -11 16 -20 13 -20 -3 0 -13 9 -23 20 -10 11 -16 20 -13 20 3 0 13 -9 23 -20z m515 8 c25 -5 97 -25 160 -44 63 -20 121 -38 129 -40 11 -3 11 -7 1 -19 -20 -24 12 -62 62 -75 24 -6 57 -16 73 -21 59 -19 341 -97 393 -109 63 -15 153 -49 131 -50 -9 0 -45 9 -80 19 -35 11 -125 35 -199 54 -74 20 -189 50 -255 67 -66 18 -132 35 -147 37 -33 6 -34 11 -11 28 17 13 17 14 0 32 -9 11 -17 24 -17 30 0 5 -39 21 -87 36 -132 38 -128 38 -152 6 -12 -16 -21 -35 -20 -42 3 -26 -2 -36 -21 -42 -15 -5 -19 -12 -14 -29 6 -26 -10 -43 -46 -48 -19 -2 -25 -9 -25 -27 0 -31 -22 -39 -27 -10 -2 15 -14 26 -38 35 l-35 12 61 1 c92 1 127 39 51 57 -31 7 -31 8 23 19 63 12 72 31 25 55 l-30 15 40 5 c53 7 54 32 2 41 -71 11 -139 0 -207 -34 -67 -33 -78 -45 -210 -229 -50 -69 -123 -129 -178 -146 -20 -6 -38 -9 -40 -7 -3 3 4 7 14 10 85 27 153 87 237 212 83 125 156 185 247 204 48 10 135 9 190 -3z m583 -35 c-7 -2 -21 -2 -30 0 -10 3 -4 5 12 5 17 0 24 -2 18 -5z m-206 -79 c-3 -3 -12 -4 -19 -1 -8 3 -5 6 6 6 11 1 17 -2 13 -5z m60 -20 c-3 -3 -12 -4 -19 -1 -8 3 -5 6 6 6 11 1 17 -2 13 -5z m-217 -63 c0 -16 6 -33 13 -38 11 -10 259 -81 636 -185 85 -23 150 -43 144 -45 -13 -5 -146 28 -256 63 -43 13 -166 46 -273 74 -195 50 -274 73 -303 90 -14 8 -14 9 1 10 44 0 27 46 -20 53 -18 3 -13 4 16 6 40 1 42 0 42 -28z m-115 -35 c48 -11 53 -14 26 -15 -31 -1 -33 -3 -26 -28 4 -16 7 -29 8 -29 5 -4 234 -66 312 -84 50 -12 110 -27 135 -35 25 -7 90 -25 145 -40 138 -37 198 -56 210 -66 16 -15 -12 -10 -143 26 -70 19 -185 51 -257 71 -283 78 -459 121 -476 117 -18 -5 -33 -43 -21 -54 9 -8 213 -68 392 -115 197 -51 279 -78 253 -82 -12 -2 -100 19 -195 46 -95 28 -227 64 -293 82 -66 17 -130 36 -143 41 -13 5 -32 9 -44 9 -16 0 -19 -4 -14 -22 3 -13 6 -28 6 -34 0 -7 57 -30 128 -52 70 -22 192 -60 272 -85 80 -25 135 -46 124 -46 -12 -1 -142 35 -290 79 -147 44 -276 80 -286 80 -10 0 -18 -7 -18 -17 0 -15 -1 -15 -18 0 -10 10 -29 18 -43 18 -13 1 5 7 41 13 49 8 66 15 68 29 5 26 -16 47 -47 47 -14 0 -33 5 -41 11 -11 8 -3 9 31 4 25 -3 58 -1 73 5 23 8 25 13 16 30 -6 11 -20 20 -30 20 -11 0 -20 4 -20 8 0 5 27 6 60 4 90 -7 118 31 46 63 -40 17 -17 18 59 1z m-948 -12 c-3 -3 -12 -4 -19 -1 -8 3 -5 6 6 6 11 1 17 -2 13 -5z m638 -32 c6 -4 10 -20 10 -37 0 -27 -4 -31 -43 -39 -41 -9 -44 -11 -38 -37 4 -22 1 -31 -14 -39 -22 -12 -27 -1 -8 18 15 15 -14 49 -46 55 -11 2 5 5 36 6 31 0 63 4 72 7 25 10 19 42 -11 58 l-28 15 30 0 c17 1 35 -3 40 -7z m1219 -91 c4 -5 -3 -7 -14 -4 -23 6 -26 13 -6 13 8 0 17 -4 20 -9z m-1365 -62 c14 0 20 -3 14 -6 -7 -2 -13 -17 -13 -33 0 -30 -15 -40 -61 -40 -23 0 -32 -6 -39 -26 -6 -14 -8 -30 -4 -35 3 -6 -17 -8 -48 -7 -29 1 -59 0 -67 -2 -8 -3 -14 3 -16 16 -1 21 2 21 57 17 53 -5 58 -4 58 14 0 12 -11 25 -26 32 -40 18 -26 21 46 11 38 -5 69 -5 74 0 15 15 -1 39 -36 55 l-33 15 34 -5 c18 -3 45 -5 60 -6z m-1455 -48 c3 -5 -10 -9 -28 -8 -19 0 -33 5 -30 9 7 11 51 10 58 -1z m1574 -59 c3 -9 -2 -13 -14 -10 -9 1 -19 9 -22 16 -3 9 2 13 14 10 9 -1 19 -9 22 -16z m-1578 -12 c0 -5 -7 -10 -15 -10 -8 0 -15 5 -15 10 0 6 7 10 15 10 8 0 15 -4 15 -10z m1115 0 c3 -6 -1 -7 -9 -4 -18 7 -21 14 -7 14 6 0 13 -4 16 -10z m94 -26 c2 -2 2 -7 -2 -10 -3 -4 -23 1 -44 10 l-38 17 40 -7 c22 -3 42 -8 44 -10z m268 -20 c-3 -3 -12 -4 -19 -1 -8 3 -5 6 6 6 11 1 17 -2 13 -5z m-1722 -34 c-4 -6 -30 -29 -58 -52 -29 -22 -85 -72 -126 -110 -40 -38 -76 -66 -80 -63 -3 4 5 16 19 27 14 11 61 53 105 93 44 40 91 82 105 94 27 22 45 28 35 11z m568 -9 c22 -22 -6 -24 -46 -3 l-42 23 39 -5 c22 -3 44 -10 49 -15z m-285 -31 c49 -29 62 -40 45 -40 -12 1 -119 70 -108 70 6 0 34 -14 63 -30z m167 -84 c51 -23 77 -43 38 -29 -30 10 -103 45 -103 49 0 7 8 5 65 -20z m-235 -86 c0 -13 -1 -13 -10 0 -5 8 -10 22 -10 30 0 13 1 13 10 0 5 -8 10 -22 10 -30z m2034 -103 c3 -12 -1 -43 -9 -67 l-14 -45 0 73 c-1 70 10 89 23 39z m748 -313 c59 -62 77 -106 66 -163 -9 -50 -20 -66 -59 -87 -34 -17 -69 -18 -104 -2 -24 11 -35 38 -15 38 18 0 11 36 -15 74 -30 45 -31 50 -5 36 32 -17 54 -68 41 -97 -14 -31 -14 -33 3 -33 31 0 34 61 6 108 -25 41 -25 50 0 27 24 -22 43 -78 35 -105 -5 -17 -2 -20 22 -20 21 0 32 8 45 30 16 29 16 31 -11 85 -31 62 -25 74 10 18 13 -20 24 -32 26 -26 7 21 -35 89 -71 117 -35 26 -46 46 -27 46 6 0 29 -21 53 -46z m-6 -131 c9 -21 11 -40 5 -55 -7 -21 -9 -19 -15 19 -4 22 -14 49 -21 60 -20 25 -18 38 2 22 9 -8 22 -28 29 -46z m-576 -134 c0 -10 -2 -19 -6 -19 -6 0 -34 65 -34 77 1 17 40 -40 40 -58z m-96 -28 c3 -5 29 -16 58 -26 77 -25 88 -38 87 -104 l-1 -56 -8 46 c-11 63 -26 88 -58 95 -31 8 -102 42 -102 49 0 8 19 5 24 -4z m165 -281 c-1 -42 -3 -49 -9 -30 -12 38 -12 119 0 100 5 -8 9 -40 9 -70z m21 -140 c0 -20 -2 -22 -10 -10 -5 8 -10 26 -10 40 0 20 2 22 10 10 5 -8 10 -26 10 -40z" transform="translate(0.000000,420.000000) scale(0.100000,-0.100000)"/></g></svg>