<svg width="611" height="617" viewBox="0 0 611 617" fill="none" xmlns="http://www.w3.org/2000/svg">
<path d="M549.605 361.711C550.107 361.004 550.059 360.019 549.444 359.362C548.74 358.611 547.562 358.574 546.811 359.276L518.17 386.12L464.782 386.398C462.343 386.896 461.437 390.486 462.848 391.292L513.842 391.159L518.449 393.662L549.358 361.995C549.451 361.907 549.533 361.812 549.605 361.711Z" fill="#263238"/>
<path d="M564.62 317.384L548.036 334.851C548.036 334.851 548.399 335.205 545.325 329.957C541.989 324.261 537.7 323.405 534.982 324.677C532.684 325.752 533.303 327.269 533.303 327.269L537.326 335.867L539.901 356.221C540.188 357.676 540.945 358.996 542.056 359.98L548.824 365.966C550.519 367.466 552.808 368.107 555.037 367.707L566.107 365.721C566.784 365.466 567.715 364.817 568.188 364.27L585.048 348.608C590.77 341.979 580.948 322.829 579.305 321.41C577.662 319.993 568.416 312.986 564.62 317.384Z" fill="#26A69A"/>
<path d="M396.129 612.944C396.658 612.914 397.169 612.659 397.511 612.202C397.902 611.677 407.012 599.128 400.064 577.539C399.749 576.559 398.699 576.023 397.72 576.337C396.741 576.651 395.459 577.744 395.773 578.723C402.1 598.38 394.866 609.511 394.523 609.978C393.915 610.805 394.088 611.97 394.913 612.581C395.278 612.85 395.709 612.969 396.129 612.944Z" fill="#263238"/>
<path d="M393.691 612.796C393.849 618.38 435.8 617.184 435.64 611.601C435.482 606.016 425.962 601.757 414.378 602.087C402.794 602.417 393.532 607.211 393.691 612.796Z" fill="#263238"/>
<path d="M425.607 412.073C378.782 396.113 327.983 420.848 312.143 467.32C296.304 513.792 321.423 564.403 368.248 580.363C415.072 596.322 465.872 571.587 481.711 525.115C497.55 478.643 472.431 428.032 425.607 412.073Z" fill="#E8EAF6"/>
<path d="M407.446 356.609C385.061 368.079 356.64 396.488 367.116 416.932C377.591 437.378 440.769 467.542 463.155 456.072C485.539 444.602 477.858 394.005 467.383 373.561C456.906 353.116 429.831 345.138 407.446 356.609Z" fill="#E8EAF6"/>
<path d="M419.662 451.879C419.662 451.879 420.169 452.009 421.121 452.251C421.595 452.376 422.18 452.529 422.868 452.711C423.555 452.88 424.344 453.075 425.228 453.293C426.104 453.526 427.091 453.737 428.157 453.983C429.219 454.247 430.378 454.481 431.613 454.739C432.846 455.009 434.167 455.233 435.55 455.503C436.944 455.713 438.4 455.983 439.927 456.168C441.45 456.392 443.042 456.535 444.684 456.67C445.504 456.721 446.338 456.773 447.184 456.826C448.027 456.84 448.884 456.852 449.752 456.866C453.203 456.815 456.834 456.459 460.215 455.293C460.653 455.179 461.042 454.975 461.453 454.805L462.065 454.541L462.219 454.476L462.295 454.443C462.394 454.391 462.204 454.496 462.238 454.476L462.279 454.453L462.601 454.266C463.031 454.018 463.462 453.769 463.895 453.519L464.221 453.334C464.316 453.269 464.395 453.203 464.483 453.138L465.004 452.748C465.347 452.474 465.716 452.27 466.051 451.942L467.078 450.998C467.441 450.701 467.729 450.323 468.047 449.973C468.353 449.611 468.691 449.277 468.977 448.892C471.321 445.854 472.982 442.149 474.135 438.279C475.249 434.386 475.883 430.324 476.211 426.297C476.537 422.266 476.555 418.261 476.38 414.391C476.023 406.646 474.905 399.447 473.608 393.361C472.949 390.318 472.214 387.558 471.512 385.126C470.77 382.706 470.09 380.604 469.438 378.908C469.131 378.052 468.824 377.3 468.552 376.649C468.288 375.993 468.054 375.44 467.845 375C467.44 374.113 467.224 373.641 467.224 373.641L467.221 373.634C467.18 373.545 467.22 373.438 467.309 373.398C467.396 373.359 467.499 373.394 467.542 373.478C467.542 373.478 467.782 373.944 468.231 374.816C468.464 375.249 468.726 375.794 469.022 376.441C469.329 377.084 469.674 377.827 470.023 378.673C470.768 380.35 471.545 382.436 472.389 384.847C473.197 387.268 474.052 390.022 474.844 393.067C475.628 396.112 476.374 399.441 477.009 402.994C477.655 406.545 478.133 410.329 478.444 414.264C478.748 418.199 478.862 422.291 478.66 426.457C478.454 430.619 477.937 434.861 476.888 439.031C475.82 443.189 474.167 447.285 471.657 450.889C470.321 452.653 468.946 454.304 467.083 455.679L466.406 456.204L466.067 456.46L465.747 456.656C465.319 456.914 464.892 457.173 464.468 457.429L464.149 457.621L464.109 457.645C464.117 457.641 463.899 457.761 463.969 457.721L463.876 457.763L463.691 457.848L462.949 458.184C462.453 458.398 461.967 458.652 461.458 458.795C457.424 460.173 453.399 460.457 449.701 460.315C448.779 460.256 447.868 460.198 446.971 460.14C446.083 460.041 445.208 459.944 444.349 459.849C442.641 459.588 440.999 459.321 439.444 458.98C436.325 458.341 433.53 457.535 431.084 456.755C428.637 455.97 426.544 455.195 424.834 454.509C423.119 453.83 421.803 453.256 420.914 452.84C420.02 452.433 419.544 452.216 419.544 452.216C419.455 452.175 419.415 452.069 419.456 451.979C419.491 451.899 419.579 451.859 419.662 451.879Z" fill="white"/>
<path d="M518.168 429.477C513.597 437.248 508.163 444.817 501.884 452.034C502.113 452.323 484.684 440.969 473.538 425.645C461.471 410.692 455.686 391.768 457.924 385.503C460.488 384.928 462.987 384.256 465.416 383.494C464.753 390.659 474.435 405.225 488.181 414.715C501.293 424.721 518.469 429.652 518.168 429.477Z" fill="#26A69A"/>
<path d="M501.305 451.634C506.297 455.279 511.807 458.565 516.962 461.986C518.486 463.001 521.686 461.252 520.144 460.273C514.951 456.946 509.408 453.764 504.379 450.211C502.919 449.183 499.851 450.561 501.305 451.634Z" fill="#26A69A"/>
<path d="M506.05 447.508C509.068 448.429 511.253 449.946 513.833 451.195C516.41 452.439 519.178 453.521 522.086 454.459C524.057 455.091 526.325 452.934 524.355 452.336C518.39 450.473 513.604 447.159 507.553 445.363C505.583 444.765 504.071 446.889 506.05 447.508Z" fill="#26A69A"/>
<path d="M509.281 443.156C515.386 444.894 520.622 447.683 526.68 449.426C528.649 449.984 530.794 447.768 528.824 447.242C522.486 445.498 517.047 442.746 510.692 440.982C508.748 440.432 507.323 442.583 509.281 443.156Z" fill="#26A69A"/>
<path d="M511.725 439.1C517.574 441.143 523.348 443.244 529.253 445.111C531.137 445.702 533.18 443.453 531.3 442.896C525.411 441.109 519.654 439.087 513.828 437.126C512.014 436.509 509.881 438.443 511.725 439.1Z" fill="#26A69A"/>
<path d="M515.936 435.125C514.625 435.502 515.389 435.22 516.133 435.527C516.596 435.718 517.159 435.836 517.661 435.991C519.298 436.49 520.921 437.005 522.564 437.49C525.351 438.313 528.156 439.121 531.112 439.714C533.094 440.108 535.039 437.843 533.048 437.48C529.252 436.764 525.688 435.719 522.128 434.672C520.262 434.134 517.012 432.499 514.647 433.17C512.575 433.748 513.849 435.722 515.936 435.125Z" fill="#26A69A"/>
<path d="M518.109 431.547C519.393 430.961 523.496 432.281 524.754 432.445C527.015 432.78 529.322 433.015 531.694 433.118C533.796 433.205 534.798 430.832 532.717 430.767C529.493 430.647 526.394 430.264 523.356 429.76C521.25 429.412 519.059 428.563 516.804 429.613C514.939 430.464 516.204 432.426 518.109 431.547Z" fill="#26A69A"/>
<path d="M438.757 346.201C430.784 336.004 423.141 340.523 417.034 347.539C413.216 351.925 411.897 354.482 412.241 356.123C413.746 363.295 421.68 383.819 438.217 390.428C454.958 397.118 464.228 392.726 470.325 388.945C478.205 384.057 475.753 368.027 474.91 367.682C473.386 365.474 465.221 375.713 449.838 363.759C434.457 351.805 438.757 346.201 438.757 346.201Z" fill="#80CBC4"/>
<path d="M451.702 518.281C453.519 518.281 454.992 516.808 454.992 514.991C454.992 513.174 453.519 511.701 451.702 511.701C449.886 511.701 448.413 513.174 448.413 514.991C448.413 516.808 449.886 518.281 451.702 518.281Z" fill="#212121"/>
<path d="M450.983 486.723C452.799 486.723 454.272 485.25 454.272 483.434C454.272 481.617 452.799 480.145 450.983 480.145C449.166 480.145 447.693 481.617 447.693 483.434C447.693 485.25 449.166 486.723 450.983 486.723Z" fill="#212121"/>
<path d="M454.66 416.932C456.477 416.932 457.95 415.459 457.95 413.642C457.95 411.825 456.477 410.353 454.66 410.353C452.844 410.353 451.371 411.825 451.371 413.642C451.371 415.459 452.844 416.932 454.66 416.932Z" fill="#212121"/>
<path d="M451.588 443.5C453.405 443.5 454.877 442.028 454.877 440.211C454.877 438.394 453.405 436.921 451.588 436.921C449.771 436.921 448.298 438.394 448.298 440.211C448.298 442.028 449.771 443.5 451.588 443.5Z" fill="#212121"/>
<path d="M289.207 537.552C289.446 537.992 289.87 538.325 290.398 538.431C291.063 538.564 306.848 541.493 324.069 525.335C324.781 524.667 324.817 523.55 324.157 522.844C323.493 522.136 321.874 521.176 321.164 521.843C305.348 536.683 291.247 535.002 291.101 534.973C290.149 534.79 289.222 535.411 289.029 536.364C288.944 536.786 289.016 537.202 289.207 537.552Z" fill="#263238"/>
<path d="M288.11 535.276C282.913 537.931 302.625 576.882 307.822 574.228C313.019 571.574 312.819 560.703 307.377 549.947C301.933 539.191 293.308 532.623 288.11 535.276Z" fill="#263238"/>
<path d="M412.627 271.15L393.819 316.561L406.249 363.498C404.838 365.549 401.179 364.979 400.989 363.364L388.012 319.027L388.031 314.261L408.255 269.492C408.372 269.44 412.627 271.15 412.627 271.15Z" fill="#263238"/>
<path d="M442.961 239.762L433.426 261.879C433.426 261.879 432.959 261.685 438.992 262.447C445.542 263.274 448.015 266.88 447.915 269.879C447.831 272.415 446.192 272.442 446.192 272.442L436.705 272.126L416.979 277.766C415.528 278.074 414.017 277.898 412.677 277.263L404.511 273.396C402.465 272.427 400.975 270.575 400.466 268.369L397.937 257.411C397.906 256.688 398.136 255.577 398.453 254.926L406.22 233.265C410.063 225.396 431.534 226.894 433.483 227.846C435.432 228.797 445.512 234.541 442.961 239.762Z" fill="#26A69A"/>
<path d="M498.992 322.292C498.992 322.292 509.126 296.909 514.745 290.543C512.177 285.221 503.628 278.137 494.707 274.472C484.53 270.29 474.16 269.465 472.036 271.009C465.809 277.924 458.531 303.962 458.531 303.962L498.992 322.292Z" fill="#37474F"/>
<path d="M483.802 300.648C463.971 291.302 444.77 290.358 440.915 298.538C437.06 306.719 450.011 320.926 469.842 330.272C489.673 339.617 508.874 340.562 512.729 332.381C516.585 324.201 503.633 309.993 483.802 300.648Z" fill="#263238"/>
<path d="M449.369 368.487C463.628 376.505 481.687 371.445 489.705 357.186L494.996 347.777C499.975 338.922 499.396 328.452 494.388 320.392C492.078 316.674 474.565 305.382 466.546 305.342C456.926 305.294 447.653 310.644 442.597 319.635L437.982 327.844C429.903 342.212 435.001 360.409 449.369 368.487Z" fill="#E8EAF6"/>
<path d="M490.751 368.52C489.256 369.393 467.424 347.397 467.693 344.099C467.823 342.509 468.729 339.607 471.475 338.333C474.222 337.059 477.288 338.287 479.446 340.294C481.604 342.301 492.246 367.647 490.751 368.52Z" fill="#FF5252"/>
<path d="M473.398 358.544C471.654 358.135 468.784 358.083 463.071 354.245C458.61 351.247 456.245 347.207 455.389 344.64C455.118 343.827 454.036 343.684 453.563 344.398C449.91 349.905 450.342 356.693 456.944 361.556C461.646 365.017 470.005 365.063 473.398 358.544Z" fill="#263238"/>
<path d="M469.27 330.848C469.989 331.215 471.058 330.56 471.657 329.385C472.257 328.21 472.16 326.961 471.442 326.594C470.723 326.227 469.654 326.882 469.054 328.057C468.455 329.231 468.552 330.481 469.27 330.848Z" fill="#212121"/>
<path d="M483.426 338.073C484.145 338.44 485.214 337.784 485.814 336.609C486.413 335.434 486.317 334.184 485.598 333.818C484.879 333.451 483.81 334.106 483.211 335.281C482.611 336.456 482.707 337.706 483.426 338.073Z" fill="#212121"/>
<path d="M492.027 332.737C492.023 332.737 492.02 332.737 492.016 332.737C491.81 332.734 491.444 332.647 491.303 332.103C490.81 330.188 488.777 328.574 485.578 327.558C485.203 327.439 484.995 327.038 485.114 326.662C485.233 326.286 485.634 326.079 486.01 326.198C489.663 327.357 492.024 329.303 492.669 331.682C492.75 331.839 492.774 332.027 492.72 332.21C492.631 332.516 492.344 332.737 492.027 332.737Z" fill="#263238"/>
<path d="M476.595 322.898C476.448 322.898 476.299 322.852 476.172 322.758C472.492 320.041 469.26 321.122 467.661 322.009C467.139 322.298 466.822 322.117 466.647 321.913C466.426 321.656 466.421 321.27 466.628 321.003C466.717 320.887 466.836 320.806 466.965 320.763L466.968 320.762C470.2 318.97 473.863 319.279 477.019 321.611C477.336 321.845 477.403 322.291 477.169 322.608C477.029 322.798 476.814 322.898 476.595 322.898Z" fill="#263238"/>
<path d="M404.054 519.028L396.257 536.263L305.557 471.289L331.694 435.318L404.054 519.028Z" fill="#FF5252"/>
<path d="M384.65 530.281L399.014 512.58C399.014 512.58 405.499 518.844 408.435 521.227C408.45 519.323 408.764 514.45 413.889 510.038C423.217 502.007 434.723 510.685 435.405 518.541C435.929 524.583 423.755 536.824 415.795 544.136C412.039 547.586 406.328 547.776 402.359 544.574L384.65 530.281Z" fill="#263238"/>
<path d="M243.825 588.475L262.121 593.28L268.822 481.911L224.421 479.54L243.825 588.475Z" fill="#FF5252"/>
<path d="M264.79 580.498H241.994C241.994 580.498 242.771 589.481 242.771 593.262C241.283 592.073 237.302 589.248 230.646 590.447C218.533 592.629 218.021 607.031 223.691 612.511C228.052 616.726 245.228 614.985 255.922 613.412C260.967 612.67 264.713 608.355 264.727 603.255L264.79 580.498Z" fill="#263238"/>
<path d="M50.6488 229.482L60.2299 234.525C62.5344 236.002 64.1254 239.118 64.4879 241.83C65.1078 246.471 65.558 249.959 67.1048 255.832L68.1287 257.946L48.8958 273.641L47.623 272.081C47.1535 271.507 46.2182 270.817 45.5325 270.535L40.2322 268.375C39.5466 268.095 38.6098 267.404 38.1411 266.829L25.2224 251.904C19.5482 244.952 36.2896 228.55 38.2574 227.524C40.2287 226.495 41.8775 229.031 50.6488 229.482Z" fill="#FF5252"/>
<path d="M53.5555 282.73C93.9839 361.114 195.306 330.356 202.062 322.223C216 305.443 200.65 281.147 187.146 282.394C181.021 282.96 117.043 312.059 80.4688 259.704C80.4695 259.704 49.5166 274.899 53.5555 282.73Z" fill="#FF5252"/>
<path d="M25.5556 272.014L19.235 267.216L56.7083 216.5L67.2133 224.858L25.5556 272.014Z" fill="#754B4B"/>
<path d="M61.8866 231.328L66.2266 234.523C67.9717 235.808 69.0283 237.82 69.1054 239.986C69.236 243.688 69.5977 249.588 70.5965 253.382L69.9466 256.636L59.1347 260.565C50.2728 255.846 53.0346 242.307 55.7608 239.713C53.1452 239.618 50.8157 239.473 48.0447 238.468C43.9886 236.998 43.771 232.314 46.8703 230.727C50.8008 230.713 54.408 230.332 56.7546 230.012C58.5711 229.765 60.4104 230.241 61.8866 231.328Z" fill="#FF5252"/>
<path d="M47.008 223.647C32.7031 213.478 6.97558 249.143 26.2184 255.254C36.9632 258.666 40.8715 248.254 43.6476 242.29C45.4434 238.432 54.3531 228.869 47.008 223.647Z" fill="#FF5252"/>
<path d="M73.7229 280.311C65.1785 287.025 56.4956 291.038 54.5828 290.389L42.0237 275.263C42.0451 275.222 43.2238 270.819 56.8381 260.341C70.3297 249.958 75.9125 248.989 76.0617 248.965L87.8638 264.493C88.6629 265.544 80.0692 275.323 73.7229 280.311Z" fill="#E8EAF6"/>
<path d="M127.784 264.44C114.972 230.146 124.677 163.366 145.15 116.111C102.084 145.393 38.978 168.596 3.45319 167.723C3.97259 172.485 5.15194 178.715 8.82057 187.488C13.2176 189.493 28.1005 188.952 31.2626 188.853C29.7422 190.258 16.1785 194.079 10.3117 193.702C10.8875 194.938 11.3291 196.165 11.9684 197.433C13.9461 198.837 27.2365 199.726 27.2365 199.726C27.2365 199.726 18.8412 203.87 16.6309 203.958C23.4673 216.46 32.295 227.015 45.8144 237.771C60.9755 249.832 80.0214 258.679 95.8774 262.578C94.7922 254.748 96.8156 246.232 96.8156 246.232C96.8156 246.232 98.9118 257.752 102.982 262.727C113.461 264.679 122.343 265.085 127.784 264.44Z" fill="#26A69A"/>
<path d="M151.611 205.533C141.731 179.089 149.213 127.597 165.001 91.1572C131.793 113.738 83.1329 131.628 55.7387 130.954C56.6113 138.944 62.8027 157.127 76.1759 173.014C80.1306 174.44 93.0143 167.597 93.0143 167.597C93.0143 167.597 84.5106 176.517 80.67 178.079C81.6217 179.037 83.0951 180.372 84.1067 181.298C87.1297 181.818 93.2155 178.213 93.2155 178.213C93.2155 178.213 90.3018 182.129 88.4047 184.968C97.308 192.052 107.554 196.992 117.334 200.273C120.057 197.556 122.022 188.261 122.022 188.261C122.022 188.261 123.088 200.57 126.892 203.019C137.366 205.538 146.476 206.143 151.611 205.533Z" fill="#26A69A"/>
<path d="M151.625 205.675C150.605 205.853 149.552 206.003 148.508 206.076C147.462 206.154 146.412 206.201 145.363 206.219C144.314 206.235 143.264 206.234 142.214 206.2C141.165 206.163 140.117 206.101 139.07 206.023C136.974 205.874 134.889 205.622 132.811 205.318C130.731 205.02 128.666 204.622 126.608 204.193L126.42 204.154L126.237 204.034C125.859 203.787 125.52 203.509 125.237 203.212C124.952 202.915 124.706 202.606 124.484 202.292C124.04 201.665 123.701 201.015 123.405 200.364C122.812 199.061 122.387 197.742 122.021 196.419C121.663 195.095 121.36 193.768 121.127 192.432C121.008 191.764 120.901 191.096 120.804 190.426C120.709 189.75 120.622 189.094 120.55 188.389L123.466 188.566C123.346 189.134 123.218 189.659 123.085 190.202L122.666 191.812C122.378 192.883 122.042 193.945 121.668 195.003C121.484 195.531 121.284 196.058 121.071 196.585C120.855 197.112 120.635 197.636 120.376 198.16C120.133 198.683 119.837 199.206 119.532 199.725L118.997 200.503C118.79 200.763 118.556 201.021 118.331 201.273L117.753 201.922L116.883 201.612C111.653 199.751 106.553 197.527 101.666 194.898C99.2243 193.581 96.8342 192.168 94.5176 190.64C93.3603 189.874 92.2216 189.081 91.0987 188.265L89.4349 187.015L87.8032 185.723L87.0797 185.149L87.602 184.433L92.5199 177.698L93.6536 178.957C92.9101 179.377 92.1824 179.747 91.4297 180.108C90.6806 180.467 89.9143 180.797 89.1316 181.098C88.7414 181.251 88.3418 181.388 87.9387 181.518C87.7404 181.588 87.5292 181.638 87.3259 181.699C87.1218 181.759 86.9142 181.813 86.7001 181.857C86.4854 181.899 86.2828 181.96 86.0588 181.986C85.8376 182.016 85.6207 182.053 85.3966 182.075L84.706 182.103L83.979 182.034L83.7735 182.015L83.6009 181.849L80.1834 178.562L79.4984 177.902L80.411 177.446C80.6871 177.307 80.9675 177.202 81.245 177.041C81.5211 176.873 81.8036 176.726 82.0769 176.543C82.627 176.186 83.1664 175.801 83.6986 175.399C84.7588 174.59 85.7948 173.733 86.8086 172.847C88.8327 171.072 90.8026 169.213 92.7047 167.304L93.2262 167.966C92.5527 168.331 91.8856 168.652 91.205 168.968C90.5243 169.279 89.8387 169.575 89.1473 169.857C87.7646 170.42 86.357 170.92 84.9315 171.356C84.2223 171.587 83.4988 171.77 82.7818 171.972C82.0555 172.141 81.3363 172.337 80.6036 172.474C79.8752 172.633 79.1417 172.758 78.4054 172.872C77.672 173.001 76.9278 173.06 76.1908 173.157C76.1131 173.167 76.041 173.112 76.031 173.034C76.021 172.958 76.0731 172.887 76.1487 172.875L76.1587 172.874C76.8879 172.754 77.6228 172.673 78.3455 172.521C79.0711 172.386 79.7938 172.238 80.5101 172.058C81.2307 171.9 81.9371 171.682 82.6498 171.493C83.3533 171.27 84.0618 171.067 84.756 170.816C86.1515 170.34 87.5256 169.802 88.8705 169.204C89.5433 168.905 90.2097 168.592 90.8682 168.265C91.5225 167.936 92.181 167.591 92.8003 167.23L95.3109 165.763L93.3218 167.892C91.4611 169.883 89.5462 171.809 87.5534 173.673C86.5546 174.602 85.5293 175.507 84.4627 176.377C83.9269 176.809 83.3761 177.229 82.8011 177.629C82.5178 177.832 82.2046 178.011 81.9071 178.204C81.6046 178.392 81.2543 178.545 80.9282 178.715L81.1558 177.599L84.6118 180.748L84.2337 180.562L84.721 180.595L85.2475 180.56C85.4266 180.538 85.61 180.501 85.7912 180.472C85.9717 180.449 86.1579 180.387 86.3413 180.347C86.5246 180.307 86.7087 180.254 86.8928 180.193C87.0769 180.133 87.2616 180.086 87.4443 180.016C87.8117 179.887 88.1777 179.752 88.5409 179.6C89.2679 179.3 89.9878 178.97 90.6963 178.61C91.4005 178.253 92.1132 177.867 92.7753 177.471L96.2063 175.422L93.909 178.731L89.2058 185.504L89.0046 184.216L90.6256 185.439L92.2773 186.619C93.3917 187.388 94.5197 188.135 95.6662 188.855C97.9622 190.29 100.324 191.621 102.742 192.839C105.16 194.059 107.63 195.175 110.14 196.193C112.652 197.204 115.203 198.117 117.783 198.935L116.336 199.275L116.722 198.806L117.097 198.237C117.331 197.815 117.565 197.392 117.77 196.928C117.984 196.476 118.175 195.996 118.363 195.516C118.548 195.034 118.723 194.545 118.887 194.047C119.214 193.052 119.518 192.042 119.806 191.022L120.212 189.487C120.34 188.977 120.467 188.449 120.576 187.957L122.693 178.405L123.492 188.135C123.542 188.746 123.614 189.405 123.692 190.04C123.771 190.681 123.86 191.321 123.961 191.958C124.166 193.232 124.387 194.5 124.681 195.741C124.975 196.979 125.326 198.199 125.79 199.323C125.904 199.605 126.031 199.873 126.16 200.141C126.296 200.399 126.429 200.655 126.578 200.891C126.725 201.126 126.882 201.344 127.045 201.534C127.208 201.726 127.379 201.874 127.544 202.004L127.173 201.845C129.161 202.378 131.167 202.844 133.178 203.291C135.19 203.737 137.221 204.096 139.256 204.431C140.275 204.594 141.296 204.741 142.32 204.865C143.343 205 144.37 205.117 145.398 205.209C146.427 205.301 147.458 205.365 148.491 205.398C149.526 205.421 150.549 205.442 151.597 205.391C151.676 205.388 151.743 205.448 151.747 205.527C151.75 205.599 151.695 205.662 151.625 205.675Z" fill="white"/>
<path d="M172.382 153.824C165.096 134.322 170.613 96.3406 182.257 69.4658C157.765 86.1195 121.874 99.3171 101.67 98.8184C101.958 101.465 103.038 105.63 105.035 110.476C107.535 112.187 118.748 111.321 118.748 111.321C118.748 111.321 110.548 114.719 106.883 114.592C108.142 117.181 109.641 119.886 111.395 122.599C113.897 123.148 121.128 121.895 121.128 121.895C121.128 121.895 116.428 125.697 113.596 125.812C116.886 130.355 120.917 134.805 125.762 138.658C137.29 147.83 151.869 152.13 162.286 153.489C162.105 151.779 162.258 145.266 162.258 145.266C162.258 145.266 165.228 152.655 166.68 153.909C168.955 154.04 170.895 154.001 172.382 153.824Z" fill="#26A69A"/>
<path d="M111.418 122.458C111.828 122.52 112.223 122.543 112.618 122.544C113.021 122.543 113.424 122.528 113.827 122.499C114.635 122.441 115.441 122.354 116.246 122.246C117.854 122.035 119.464 121.767 121.051 121.453L122.767 121.114L121.409 122.244C120.283 123.18 119.121 124.038 117.869 124.811C117.246 125.197 116.597 125.556 115.905 125.862C115.732 125.937 115.562 126.019 115.377 126.08C115.194 126.143 115.018 126.218 114.827 126.27L114.247 126.42L113.624 126.506L114.159 125.403C117.046 129.182 120.286 132.682 123.888 135.74C124.781 136.499 125.725 137.256 126.637 137.934C127.609 138.627 128.583 139.375 129.564 139.978C130.056 140.293 130.536 140.618 131.036 140.924L132.559 141.818C133.57 142.418 134.631 142.938 135.669 143.489C136.733 143.996 137.774 144.539 138.85 145.018L140.453 145.759L142.071 146.466C143.144 146.952 144.242 147.381 145.329 147.841C146.425 148.281 147.525 148.712 148.64 149.108C149.743 149.542 150.87 149.905 151.992 150.293C153.118 150.67 154.248 151.041 155.389 151.382C156.524 151.75 157.676 152.059 158.826 152.395L162.305 153.348C162.382 153.367 162.429 153.446 162.409 153.523C162.393 153.588 162.332 153.63 162.268 153.631C161.057 153.618 159.841 153.577 158.633 153.465C157.423 153.364 156.214 153.223 155.014 153.038C153.809 152.866 152.617 152.623 151.42 152.393C150.236 152.113 149.043 151.854 147.869 151.522C146.69 151.207 145.53 150.83 144.366 150.455C143.206 150.073 142.061 149.64 140.926 149.187C139.798 148.712 138.67 148.237 137.579 147.679C136.466 147.166 135.408 146.54 134.333 145.957C133.288 145.316 132.225 144.708 131.212 144.018L129.681 143.002C129.175 142.653 128.678 142.279 128.177 141.92C127.15 141.203 126.256 140.438 125.303 139.696C124.323 138.896 123.429 138.108 122.527 137.271C118.952 133.942 115.787 130.21 113.033 126.22L112.341 125.215L113.568 125.117L114.013 125.081L114.478 124.988C114.634 124.956 114.793 124.898 114.951 124.854C115.11 124.813 115.267 124.748 115.426 124.689C116.058 124.453 116.686 124.154 117.299 123.82C118.526 123.159 119.722 122.378 120.847 121.547L121.205 122.337C119.573 122.563 117.947 122.739 116.308 122.858C115.489 122.913 114.667 122.946 113.843 122.949C113.431 122.951 113.018 122.939 112.605 122.912C112.184 122.882 111.767 122.828 111.373 122.741L111.367 122.74C111.29 122.722 111.241 122.646 111.258 122.569C111.273 122.495 111.345 122.448 111.418 122.458Z" fill="white"/>
<path d="M188.882 111.173C183.814 97.6086 191.223 66.7077 199.32 48.0186C182.287 59.5988 153.756 73.2673 139.706 72.9206C140.272 78.1089 145.211 91.6761 156.46 100.626C158.034 98.337 162.984 93.2935 162.984 93.2935C162.984 93.2935 160.404 102.099 162.249 104.496C163.765 105.346 165.31 106.103 166.858 106.774C167.339 103.997 169.786 99.9109 169.786 99.9109C169.786 99.9109 169.688 106.269 170.723 108.279C178.282 110.903 185.382 111.587 188.882 111.173Z" fill="#26A69A"/>
<path d="M188.895 111.316C188.515 111.4 188.139 111.485 187.744 111.546C187.349 111.617 186.962 111.647 186.569 111.697C185.787 111.771 184.999 111.806 184.213 111.817C183.426 111.829 182.64 111.804 181.854 111.762C181.067 111.731 180.285 111.651 179.503 111.566C177.937 111.4 176.383 111.139 174.841 110.81C173.296 110.489 171.776 110.061 170.262 109.603L169.717 109.438L169.475 108.92C169.373 108.702 169.256 108.463 169.179 108.253C169.111 108.05 169.036 107.837 168.983 107.638C168.879 107.242 168.793 106.856 168.727 106.479C168.595 105.726 168.497 104.988 168.444 104.256C168.389 103.525 168.34 102.798 168.328 102.073C168.315 101.345 168.308 100.635 168.33 99.8888L171.034 100.659L170.58 101.418L170.136 102.203C169.844 102.729 169.558 103.259 169.298 103.794C168.778 104.858 168.306 105.964 168.084 106.988L167.744 108.557L166.361 107.917C164.769 107.18 163.214 106.361 161.702 105.47L161.475 105.337L161.363 105.177C161.147 104.871 160.985 104.555 160.883 104.257C160.773 103.956 160.705 103.667 160.656 103.386C160.559 102.824 160.531 102.29 160.532 101.769C160.541 100.731 160.655 99.7389 160.808 98.7622C160.964 97.7869 161.162 96.8287 161.388 95.8798C161.616 94.928 161.865 94.0013 162.157 93.0516L163.599 93.8978C162.441 95.0336 161.291 96.1959 160.168 97.3709C159.605 97.9581 159.057 98.556 158.512 99.1525C157.971 99.7504 157.434 100.36 156.974 100.98L156.531 101.575L156.037 101.085C154.1 99.1646 152.274 97.1755 150.519 95.1085C149.649 94.0697 148.798 93.016 147.991 91.9279C147.598 91.3757 147.193 90.8335 146.823 90.2649C146.436 89.7084 146.088 89.1262 145.731 88.5518C145.689 88.4848 145.709 88.397 145.776 88.3556C145.841 88.3157 145.924 88.3328 145.968 88.3927L145.972 88.3984C146.364 88.9435 146.745 89.4943 147.163 90.0194C147.565 90.5552 148.002 91.0661 148.425 91.5848C149.297 92.6043 150.188 93.606 151.109 94.582C152.955 96.5226 154.889 98.4012 156.883 100.166L155.945 100.272C156.423 99.5484 156.935 98.8985 157.456 98.2506C157.976 97.6042 158.514 96.9771 159.055 96.3557C160.141 95.1128 161.241 93.8971 162.369 92.6885L164.67 90.222L163.811 93.5347C163.581 94.4236 163.375 95.3533 163.198 96.2686C163.021 97.1883 162.874 98.1101 162.769 99.0276C162.666 99.9437 162.606 100.859 162.638 101.732C162.657 102.166 162.702 102.589 162.786 102.964C162.826 103.153 162.88 103.328 162.942 103.472C163 103.625 163.075 103.727 163.134 103.812L162.795 103.52C164.273 104.307 165.8 105.003 167.353 105.631L165.63 106.56C165.746 105.838 165.932 105.179 166.134 104.536C166.337 103.893 166.578 103.283 166.826 102.677C167.076 102.072 167.347 101.483 167.627 100.899L168.066 100.032L168.537 99.1617L171.177 94.2738L171.241 99.9316C171.248 100.597 171.261 101.299 171.29 101.981C171.321 102.667 171.345 103.35 171.396 104.027C171.449 104.702 171.506 105.369 171.594 106.009C171.638 106.33 171.694 106.635 171.759 106.925L171.863 107.325C171.898 107.449 171.938 107.528 171.968 107.637L171.181 106.954C171.887 107.215 172.59 107.485 173.307 107.722C173.663 107.846 174.02 107.967 174.381 108.077L175.459 108.426C176.181 108.653 176.906 108.865 177.638 109.064C178.37 109.252 179.099 109.464 179.838 109.636C180.575 109.818 181.318 109.976 182.061 110.134C182.804 110.296 183.554 110.427 184.306 110.552C185.057 110.688 185.812 110.777 186.572 110.873C187.334 110.948 188.08 111.02 188.866 111.032C188.945 111.033 189.009 111.098 189.007 111.177C189.009 111.245 188.958 111.302 188.895 111.316Z" fill="white"/>
<path d="M142.855 161.034L139.798 164.489L141.779 169.32L137.756 166.665L134.167 170.535L134.649 165.266L130.538 163.032L135.256 161.957L136.145 158.383L138.119 161.454L142.855 161.034Z" fill="white"/>
<path d="M45.0803 171.219L41.346 175.442L43.7653 181.345L38.8503 178.101L34.4646 182.829L35.0532 176.391L30.0305 173.661L35.796 172.348L36.8818 167.979L39.2941 171.733L45.0803 171.219Z" fill="white"/>
<path d="M111.795 214.41L107.782 217.911L109.956 221.676L106.534 219.24L103.233 223.932L104.636 218.386L101.064 217.278L105.007 216.364L104.543 212.02L106.756 216.056L111.795 214.41Z" fill="#FFD54F"/>
<path d="M146.901 135.678L144.188 139.582L146.363 143.346L142.94 140.911L141.062 143.284L141.043 140.056L137.471 138.948L141.414 138.034L140.95 133.69L143.163 137.727L146.901 135.678Z" fill="#FFD54F"/>
<path d="M150.909 111.285L148.634 108.45L146.005 109.826L147.763 107.56L144.656 105.176L148.399 106.29L149.255 103.885L149.768 106.6L152.743 106.407L149.928 107.802L150.909 111.285Z" fill="#FFD54F"/>
<path d="M87.2566 134.098L84.9821 131.262L82.3523 132.639L84.1103 130.373L81.0038 127.99L84.7474 129.103L85.6036 126.698L86.1158 129.414L89.0917 129.22L86.2756 130.615L87.2566 134.098Z" fill="#FFD54F"/>
<path d="M44.4446 223.324L40.5391 218.454L36.025 220.817L39.0422 216.928L33.7098 212.837L40.1352 214.748L41.6057 210.619L42.4847 215.28L47.5945 214.948L42.7601 217.343L44.4446 223.324Z" fill="#FFD54F"/>
<path d="M132.519 110.593L131.602 115.113L135.733 118.306L130.922 118.019L129.41 121.628L127.532 118.362L122.853 118.484L126.403 115.194L125.383 111.654L128.629 113.325L132.519 110.593Z" fill="white"/>
<path d="M64.201 188.561L63.2842 193.081L67.4152 196.274L62.6043 195.987L61.0925 199.596L59.2139 196.33L54.5364 196.453L58.0845 193.161L57.0657 189.621L60.3112 191.293L64.201 188.561Z" fill="white"/>
<path d="M97.7717 228.486L96.8542 233.006L100.986 236.199L96.1743 235.913L94.6631 239.521L92.7839 236.256L88.1071 236.378L91.6552 233.086L90.6356 229.547L93.8819 231.219L97.7717 228.486Z" fill="white"/>
<path d="M116.436 164.315L112.916 167.094L113.975 172.059L110.583 168.824L107.195 170.552L107.852 166.949L104.303 164.101L109.004 163.887L110.473 160.618L111.832 163.899L116.436 164.315Z" fill="white"/>
<path d="M71.0332 228.089L67.1741 231.135L68.3363 236.578L64.6177 233.032L60.9034 234.927L61.6226 230.976L57.7328 227.853L62.8868 227.619L64.4957 224.037L65.9854 227.633L71.0332 228.089Z" fill="white"/>
<path d="M178.353 79.9432L176.159 81.6754L176.82 84.7704L174.706 82.7542L172.593 83.8315L173.002 81.5848L170.791 79.809L173.721 79.6756L174.637 77.6387L175.484 79.6842L178.353 79.9432Z" fill="white"/>
<path d="M152.757 73.8652L153.051 77.8449L157.239 79.538L153.164 80.4262L152.75 83.7852L150.42 81.505L146.553 82.7001L148.738 79.1292L147.061 76.418L150.156 77.0516L152.757 73.8652Z" fill="white"/>
<path d="M161.65 116.825L160.228 120.553L163.302 123.863L159.236 122.939L157.435 125.805L156.292 122.752L152.283 122.193L155.777 119.886L155.409 116.721L157.944 118.607L161.65 116.825Z" fill="white"/>
<path d="M83.7707 159.271C81.925 155.156 83.7643 150.324 87.8795 148.478C89.6025 147.705 91.4504 147.58 93.1528 147.996C90.6635 145.922 86.7095 145.06 83.5531 146.475C79.141 148.454 76.8308 153.002 78.2278 157.632C79.3822 161.454 84.654 164.564 88.0679 163.46C86.2222 162.687 84.654 161.242 83.7707 159.271Z" fill="white"/>
<path d="M332.68 137.476L330.527 148.088C330.214 150.807 331.621 154.01 333.493 156.006C336.696 159.421 339.113 161.976 342.683 166.888L343.673 169.018L367.995 164.046L367.591 162.074C367.443 161.347 367.5 160.186 367.716 159.477L369.395 154.005C369.612 153.297 369.669 152.135 369.521 151.407L366.13 131.961C364.332 123.169 341.04 125.764 339 126.64C336.957 127.516 337.879 130.397 332.68 137.476Z" fill="#FF5252"/>
<path d="M372.663 173.019C408.668 272.45 310.335 306.929 287.834 300.685C266.815 294.851 269.672 263.815 282.164 258.535C287.83 256.141 359.194 245.614 337.232 179.689C337.232 179.689 369.663 164.735 372.663 173.019Z" fill="#FF5252"/>
<path fill-rule="evenodd" clip-rule="evenodd" d="M324.912 144.24C348.984 145.676 358.398 155.901 372.483 156.742C375.902 156.945 396.809 158.191 407.147 158.807C410.339 158.998 413.096 156.265 413.383 151.45L414.188 137.969C414.475 133.154 412.062 130.111 408.87 129.921C398.554 129.306 377.713 128.063 374.205 127.854C359.763 126.992 349.559 136.047 325.485 134.61L324.912 144.24Z" fill="#26A69A"/>
<path fill-rule="evenodd" clip-rule="evenodd" d="M323.674 132.57C324.733 132.634 325.548 133.552 325.485 134.611L324.912 144.239C324.848 145.3 323.93 146.113 322.87 146.052L319.019 145.822C317.959 145.757 317.145 144.84 317.207 143.78L317.782 134.151C317.845 133.092 318.764 132.278 319.823 132.34L323.674 132.57Z" fill="#D69176"/>
<path fill-rule="evenodd" clip-rule="evenodd" d="M406.944 129.807C406.944 129.807 408.689 132.932 408.007 144.366C407.326 155.8 405.22 158.695 405.22 158.695L380.184 157.202C380.184 157.202 382.275 154.549 382.972 142.873C383.669 131.199 381.908 128.313 381.908 128.313L406.944 129.807Z" fill="#E5B735"/>
<path fill-rule="evenodd" clip-rule="evenodd" d="M355.377 151.901L356.649 130.578C354.761 131.097 352.813 131.634 350.757 132.15L349.713 149.653C351.697 150.402 353.567 151.164 355.377 151.901Z" fill="#E5B735"/>
<path d="M327.004 147.348L326.734 152.731C326.626 154.895 327.516 156.986 329.145 158.415C331.93 160.858 336.271 164.869 338.578 168.042L341.509 169.597L351.391 163.707C353.34 153.858 341.106 147.435 337.373 147.906C338.953 145.82 340.314 143.925 341.288 141.143C342.714 137.071 339.225 133.94 336.035 135.337C333.538 138.372 330.962 140.925 329.23 142.541C327.889 143.792 327.095 145.518 327.004 147.348Z" fill="#FF5252"/>
<path d="M330.463 130.966C331.632 113.454 375.53 116.08 368.094 134.851C363.941 145.332 353.405 141.775 347.029 140.153C342.906 139.104 329.862 139.958 330.463 130.966Z" fill="#FF5252"/>
<path d="M349.112 154.778L348.488 154.152C348.287 153.936 348.061 153.756 347.851 153.559C347.644 153.362 347.418 153.181 347.191 153.001C346.968 152.818 346.751 152.63 346.515 152.465C346.059 152.116 345.584 151.793 345.11 151.474C344.621 151.176 344.139 150.873 343.637 150.603C343.392 150.457 343.132 150.342 342.879 150.211C342.628 150.079 342.37 149.963 342.113 149.845C341.6 149.608 341.075 149.4 340.546 149.222C340.285 149.119 340.02 149.044 339.755 148.963C339.491 148.873 339.225 148.831 338.961 148.762C338.701 148.722 338.431 148.66 338.182 148.651C337.922 148.62 337.691 148.624 337.463 148.633L337.391 148.636C336.99 148.651 336.653 148.337 336.638 147.936C336.632 147.76 336.689 147.595 336.788 147.466C337.695 146.29 338.602 145.148 339.344 143.908C339.715 143.288 340.05 142.65 340.346 141.99C340.494 141.66 340.628 141.325 340.757 140.986C340.832 140.71 341.008 140.265 341.023 139.986C341.094 139.678 341.09 139.34 341.1 139.005C341.066 138.674 341.033 138.342 340.93 138.024C340.835 137.709 340.711 137.394 340.53 137.117C340.452 136.969 340.356 136.835 340.245 136.71C340.145 136.577 340.037 136.45 339.908 136.345C339.788 136.229 339.667 136.114 339.523 136.029C339.386 135.934 339.253 135.833 339.098 135.769C338.805 135.611 338.484 135.504 338.158 135.444C337.83 135.378 337.491 135.374 337.157 135.407C336.993 135.439 336.821 135.448 336.659 135.496L336.171 135.651L336.298 135.554C334.113 138.061 331.755 140.399 329.278 142.593C329.248 142.62 329.204 142.617 329.177 142.587C329.152 142.558 329.154 142.516 329.18 142.489C331.53 140.168 333.746 137.714 335.77 135.12L335.774 135.114C335.807 135.072 335.85 135.041 335.897 135.024L336.464 134.809C336.656 134.744 336.861 134.721 337.059 134.676C337.461 134.618 337.877 134.607 338.282 134.672C338.688 134.729 339.09 134.845 339.46 135.024C339.654 135.098 339.826 135.213 340 135.323C340.181 135.425 340.337 135.559 340.492 135.695C340.656 135.823 340.797 135.972 340.929 136.131C341.072 136.281 341.198 136.444 341.305 136.622C341.542 136.959 341.714 137.341 341.849 137.73C341.991 138.121 342.053 138.528 342.108 138.938C342.117 139.347 342.137 139.756 342.06 140.183C342.015 140.651 341.906 140.906 341.796 141.351C341.675 141.715 341.545 142.075 341.405 142.433C341.124 143.148 340.797 143.848 340.434 144.525C339.712 145.885 338.844 147.147 337.953 148.347L337.278 147.18C337.635 147.149 337.989 147.132 338.313 147.172C338.649 147.195 338.952 147.271 339.268 147.328C339.568 147.411 339.881 147.473 340.171 147.576C340.464 147.672 340.76 147.764 341.042 147.881C341.612 148.107 342.162 148.37 342.696 148.656C342.962 148.801 343.232 148.937 343.486 149.102C343.741 149.264 344.005 149.411 344.25 149.588C344.754 149.92 345.234 150.282 345.703 150.659L346.383 151.249C346.612 151.442 346.815 151.667 347.03 151.874C347.455 152.297 347.851 152.743 348.215 153.223C348.392 153.464 348.588 153.693 348.746 153.941L349.221 154.686C349.242 154.719 349.232 154.764 349.199 154.785C349.173 154.806 349.136 154.801 349.112 154.778Z" fill="#E8EAF6"/>
<path d="M357.46 187.496C368.065 185.124 376.664 180.935 377.372 179.043L373.598 159.749C373.552 159.739 369.396 157.868 352.669 161.787C336.094 165.672 331.813 169.384 331.699 169.484L336.263 188.446C336.574 189.73 349.584 189.257 357.46 187.496Z" fill="#E8EAF6"/>
<path d="M380.07 379.097C394.546 436.746 374.06 464.761 288.921 486.14C203.783 507.519 172.492 492.505 158.016 434.857C143.54 377.208 171.804 270.161 230.958 255.307C290.113 240.453 365.595 321.448 380.07 379.097Z" fill="#FF5252"/>
<path d="M328.607 474.039C328.607 474.039 328.323 474.188 327.788 474.468C327.254 474.748 326.468 475.147 325.451 475.63C324.436 476.121 323.193 476.684 321.758 477.309C320.319 477.925 318.691 478.611 316.891 479.297C315.098 480 313.136 480.708 311.048 481.42C308.965 482.145 306.745 482.839 304.434 483.506C302.122 484.165 299.712 484.77 297.256 485.353C294.8 485.926 292.305 486.509 289.809 487.092C284.823 488.24 279.806 489.317 275.097 490.237C270.387 491.171 265.966 491.912 262.167 492.48C258.37 493.049 255.197 493.461 252.971 493.702C250.745 493.934 249.473 494.067 249.473 494.067C249.394 494.075 249.324 494.019 249.316 493.94C249.308 493.865 249.363 493.797 249.436 493.784C249.436 493.784 250.696 493.572 252.899 493.202C255.1 492.812 258.241 492.255 261.99 491.479C269.486 489.93 279.42 487.599 289.25 484.878C291.706 484.191 294.159 483.499 296.561 482.771C298.961 482.048 301.324 481.337 303.61 480.649C305.903 479.993 308.118 479.352 310.231 478.783C312.339 478.196 314.332 477.641 316.172 477.129C319.863 476.112 322.939 475.264 325.092 474.67C326.176 474.381 327.028 474.154 327.609 474C328.193 473.851 328.505 473.771 328.505 473.771C328.582 473.751 328.66 473.798 328.68 473.875C328.696 473.942 328.664 474.009 328.607 474.039Z" fill="white"/>
<path d="M314.589 283.264C314.589 283.264 315.117 283.596 316.011 284.214C316.913 284.818 318.172 285.74 319.632 286.895C320.368 287.467 321.145 288.112 321.958 288.803C322.782 289.483 323.599 290.256 324.468 291.031C325.303 291.842 326.173 292.672 327.019 293.555C327.869 294.433 328.732 295.324 329.596 296.216C331.313 298.008 332.998 299.828 334.555 301.555C335.324 302.427 336.083 303.254 336.77 304.068C337.458 304.88 338.11 305.649 338.711 306.357C339.906 307.78 340.882 308.983 341.559 309.828C342.236 310.674 342.624 311.157 342.624 311.157L342.515 311.249C342.515 311.249 342.101 310.789 341.377 309.984C340.652 309.18 339.61 308.038 338.338 306.689C335.793 303.991 332.364 300.431 328.79 297.024C327.888 296.182 326.998 295.328 326.091 294.518C325.194 293.7 324.31 292.896 323.455 292.118C321.771 290.535 320.208 289.047 318.88 287.753C317.556 286.456 316.449 285.384 315.691 284.599C314.921 283.832 314.498 283.373 314.498 283.373L314.589 283.264Z" fill="white"/>
<path d="M400.622 426.492C400.622 426.492 388.011 416.973 384.723 401.88C364.42 398.432 353.538 433.84 353.538 433.84L400.622 426.492Z" fill="#FF5252"/>
<path d="M162.293 486.338C162.293 486.338 168.912 471.991 164.679 457.135C180.945 444.505 207.263 470.572 207.263 470.572L162.293 486.338Z" fill="#FF5252"/>
<path d="M289.018 445.182C280.332 423.418 246.824 289.123 246.796 262.132C246.796 262.132 235.701 263.953 232.262 265.076C229.66 282.245 258.257 414.285 270.04 453.131C270.04 453.131 289.383 446.098 289.018 445.182Z" fill="#E8EAF6"/>
<path d="M404.819 429.668C404.712 426.389 401.935 423.839 398.66 424.016C379.959 425.026 325.559 428.041 277.37 440.141C229.182 452.242 179.811 475.284 162.851 483.229C159.88 484.62 158.639 488.179 160.093 491.12L163.754 498.517C165.175 501.39 168.641 502.588 171.529 501.197C186.841 493.825 227.816 472.892 282.167 459.244C336.518 445.596 382.522 444.689 399.501 443.953C402.703 443.814 405.192 441.121 405.087 437.917L404.819 429.668Z" fill="#E8EAF6"/>
<path d="M361.19 446.019C361.19 446.019 362.386 445.878 364.48 445.63C366.576 445.389 369.573 445.074 373.173 444.73C376.773 444.385 380.977 444.014 385.489 443.71C389.978 443.419 394.767 443.109 399.556 442.799C401.554 442.623 403.19 441.113 403.591 439.312C403.688 438.865 403.719 438.411 403.697 437.961C403.663 437.375 403.629 436.791 403.595 436.211C403.525 435.051 403.483 433.905 403.434 432.777C403.403 431.674 403.372 430.589 403.342 429.528C403.332 429.403 403.329 429.234 403.312 429.147L403.268 428.897C403.239 428.73 403.175 428.514 403.118 428.33C402.99 427.951 402.819 427.589 402.605 427.255C401.727 425.92 400.205 425.172 398.748 425.155C396.963 425.169 395.286 425.151 393.821 425.132C392.349 425.106 391.066 425.073 390.008 425.03C387.892 424.951 386.68 424.854 386.68 424.854C386.601 424.847 386.542 424.778 386.548 424.699C386.553 424.633 386.602 424.581 386.663 424.569C386.663 424.569 387.855 424.333 389.947 424.009C390.993 423.843 392.264 423.662 393.722 423.467C395.186 423.28 396.815 423.065 398.636 422.875C399.708 422.78 400.868 422.937 401.968 423.39C403.06 423.856 404.069 424.632 404.848 425.646C405.23 426.159 405.561 426.726 405.802 427.343C405.917 427.66 406.018 427.955 406.098 428.313L406.203 428.858C406.233 429.036 406.235 429.139 406.253 429.284L406.273 429.487L406.286 429.664L406.291 429.766L406.312 430.176C406.323 430.45 406.333 430.726 406.343 431.003C406.363 431.557 406.384 432.116 406.404 432.68C406.428 433.809 406.461 434.956 406.466 436.118C406.47 436.699 406.474 437.284 406.478 437.871C406.473 438.597 406.373 439.323 406.168 440.024C405.734 441.417 404.888 442.677 403.742 443.572C403.176 444.025 402.536 444.39 401.855 444.638C401.515 444.777 401.176 444.858 400.803 444.943L400.225 445.04L399.769 445.072C394.934 445.172 390.1 445.27 385.567 445.363C383.313 445.428 381.133 445.49 379.066 445.549C376.999 445.618 375.044 445.684 373.241 445.744C369.632 445.876 366.628 446.042 364.523 446.133C362.417 446.241 361.215 446.303 361.215 446.303C361.136 446.307 361.068 446.247 361.065 446.168C361.06 446.093 361.115 446.029 361.19 446.019Z" fill="white"/>
<path d="M386.201 379.518C386.201 379.518 311.443 385.601 266.267 396.945C221.093 408.289 152.811 438.123 152.811 438.123L163.451 461.063C163.451 461.063 222.595 433.647 272.559 420.979C322.581 408.54 387.661 404.763 387.661 404.763L386.201 379.518Z" fill="#263238"/>
<path d="M248.985 264.803C259.233 261.764 263.075 266.152 265.259 257.922C267.444 249.692 242.676 225.882 242.676 225.882C242.676 225.882 228.483 229.358 223.532 225.732C220.709 231.627 206.731 234.908 206.731 234.908C206.731 234.908 196.149 267.594 201.962 273.816C207.776 280.038 209.087 274.355 219.557 272.192L234.097 268.541L248.985 264.803Z" fill="#E8EAF6"/>
<path d="M246.421 262.657C255.343 260.011 255.865 264.541 257.766 257.376C259.668 250.211 240.928 228.773 240.928 228.773C240.928 228.773 228.572 231.799 224.262 228.643C221.804 233.775 209.636 236.631 209.636 236.631C209.636 236.631 203.247 264.379 208.308 269.795C213.369 275.211 211.687 270.973 220.803 269.09L233.461 265.911L246.421 262.657Z" fill="#FFAF99"/>
<path d="M257.81 249.025C251.778 244.768 239.385 248.301 238.363 254.304C235.889 255.453 234.416 255.317 231.571 256.893C228.318 256.848 226.634 258.028 223.911 258.184C219.67 252.831 204.41 255.519 203.844 262.115C172.541 246.389 133.899 296.233 180.387 320.864C174.821 347.308 202.151 362.158 214.009 352.537C209.124 368.285 231.134 367.983 232.768 353.931C240.198 372.692 265.338 376.9 279.713 367.504C293.814 358.288 295.721 342.784 290.702 334.736C305.49 334.024 315.487 308.724 301.03 298.161C314.06 299.764 311.951 287.176 303.615 288.342C328.339 246.261 272.565 225.265 257.81 249.025Z" fill="white"/>
<path d="M232.898 353.874C233.751 355.64 234.721 357.281 235.852 358.829C236.972 360.381 238.316 361.748 239.718 363.017C242.543 365.547 245.875 367.446 249.395 368.755C251.15 369.43 252.974 369.916 254.815 370.277C256.659 370.624 258.522 370.869 260.395 370.936C262.266 371.003 264.139 370.925 265.991 370.706C267.844 370.503 269.676 370.134 271.452 369.606C273.235 369.095 274.957 368.411 276.602 367.591C277.006 367.372 277.426 367.181 277.819 366.943L278.947 366.264L281.327 364.581L283.406 362.817L285.37 360.847C285.95 360.126 286.562 359.426 287.124 358.689L287.904 357.539C288.162 357.154 288.441 356.78 288.648 356.365C289.079 355.546 289.585 354.761 289.917 353.894L290.473 352.619C290.634 352.185 290.767 351.741 290.916 351.302C291.523 349.548 291.842 347.712 292.024 345.872C292.055 344.95 292.138 344.024 292.051 343.105C292.042 342.177 291.873 341.275 291.738 340.364C291.36 338.571 290.756 336.832 289.842 335.272L289.033 333.892L290.652 333.725C291.106 333.678 291.563 333.653 292.016 333.594C292.463 333.496 292.92 333.44 293.362 333.313C294.247 333.068 295.121 332.757 295.951 332.339C296.364 332.126 296.785 331.928 297.173 331.666C297.573 331.424 297.97 331.176 298.34 330.885L298.907 330.468L299.444 330.009L299.98 329.547L300.484 329.048C300.828 328.723 301.149 328.374 301.457 328.012C301.78 327.663 302.076 327.292 302.362 326.911C302.662 326.54 302.935 326.15 303.196 325.751C303.473 325.362 303.724 324.956 303.961 324.54C304.214 324.134 304.442 323.714 304.654 323.285C304.882 322.863 305.089 322.432 305.274 321.99C305.475 321.555 305.661 321.113 305.819 320.661C305.992 320.213 306.157 319.763 306.287 319.301C306.431 318.844 306.575 318.386 306.676 317.917C306.789 317.451 306.911 316.987 306.982 316.513C307.163 315.572 307.28 314.618 307.338 313.664C307.402 312.708 307.396 311.748 307.322 310.795C307.252 309.841 307.109 308.893 306.891 307.963C306.459 306.103 305.72 304.313 304.678 302.708C304.162 301.903 303.56 301.154 302.91 300.45C302.566 300.116 302.24 299.76 301.881 299.442L300.768 298.521L299.633 297.581L301.085 297.722C301.518 297.764 301.951 297.825 302.385 297.852C302.818 297.864 303.254 297.907 303.686 297.881C304.12 297.882 304.549 297.843 304.977 297.793C305.402 297.733 305.829 297.666 306.237 297.544C306.651 297.439 307.046 297.284 307.432 297.11C307.81 296.924 308.17 296.706 308.496 296.445C308.814 296.177 309.115 295.883 309.343 295.537C309.594 295.206 309.752 294.817 309.887 294.427C309.996 294.027 310.07 293.612 310.052 293.193C310.06 292.773 309.964 292.358 309.855 291.952C309.714 291.556 309.549 291.161 309.307 290.81C309.085 290.446 308.791 290.131 308.483 289.838C308.326 289.691 308.149 289.57 307.983 289.434C307.8 289.325 307.623 289.202 307.433 289.101C307.05 288.906 306.648 288.744 306.229 288.637C305.811 288.525 305.379 288.464 304.944 288.44C304.509 288.413 304.073 288.446 303.636 288.485L303.626 288.486C303.547 288.493 303.478 288.435 303.471 288.356C303.465 288.279 303.52 288.212 303.596 288.202C304.047 288.147 304.499 288.102 304.957 288.116C305.412 288.128 305.869 288.18 306.316 288.286C306.764 288.387 307.198 288.548 307.616 288.746C307.823 288.848 308.017 288.974 308.219 289.088C308.402 289.229 308.598 289.356 308.771 289.51C309.117 289.819 309.446 290.154 309.702 290.546C309.976 290.925 310.173 291.354 310.341 291.791C310.477 292.239 310.595 292.701 310.602 293.176C310.634 293.649 310.565 294.125 310.452 294.587C310.312 295.041 310.137 295.494 309.861 295.885C309.608 296.292 309.274 296.638 308.92 296.953C308.558 297.26 308.16 297.517 307.743 297.736C307.322 297.942 306.889 298.124 306.442 298.251C305.999 298.396 305.542 298.482 305.088 298.559C304.631 298.627 304.173 298.68 303.714 298.693C303.255 298.733 302.799 298.702 302.341 298.701C301.884 298.685 301.432 298.635 300.976 298.603L301.292 297.803L302.49 298.739C302.88 299.064 303.234 299.429 303.608 299.774C304.319 300.5 304.981 301.279 305.556 302.122C306.715 303.801 307.56 305.695 308.077 307.668C308.339 308.654 308.52 309.663 308.623 310.676C308.731 311.689 308.766 312.711 308.727 313.729C308.697 314.747 308.595 315.763 308.423 316.766C308.357 317.271 308.24 317.766 308.129 318.263C308.031 318.763 307.89 319.252 307.748 319.741C307.619 320.234 307.454 320.715 307.281 321.194C307.123 321.678 306.935 322.151 306.732 322.618C306.544 323.093 306.334 323.556 306.102 324.01C305.886 324.472 305.651 324.925 305.391 325.364C305.146 325.812 304.887 326.253 304.601 326.677C304.329 327.11 304.045 327.535 303.732 327.94C303.433 328.356 303.122 328.763 302.781 329.149C302.456 329.547 302.116 329.932 301.75 330.294L301.212 330.85L300.636 331.368L300.056 331.883L299.44 332.359C299.038 332.687 298.603 332.973 298.163 333.252C297.736 333.551 297.268 333.788 296.807 334.036C295.881 334.526 294.894 334.906 293.881 335.207C293.376 335.362 292.849 335.444 292.333 335.563C291.809 335.645 291.278 335.688 290.75 335.749L291.561 334.202C292.659 335.981 293.379 337.934 293.842 339.933C294.018 340.941 294.222 341.948 294.256 342.97C294.371 343.989 294.307 345.006 294.29 346.026C294.14 348.052 293.834 350.079 293.22 352.017C293.068 352.502 292.933 352.993 292.766 353.473L292.193 354.885C291.847 355.845 291.322 356.719 290.869 357.629C290.652 358.092 290.363 358.509 290.093 358.939L289.273 360.225C288.684 361.051 288.04 361.838 287.422 362.646C286.728 363.386 286.045 364.135 285.335 364.868C284.564 365.553 283.782 366.243 283 366.909L280.647 368.629L280.573 368.682L280.439 368.77L280.276 368.871L279.949 369.075L279.295 369.48C278.859 369.752 278.399 369.975 277.951 370.224C276.135 371.17 274.217 371.89 272.264 372.452C268.349 373.566 264.261 373.88 260.246 373.61C258.237 373.473 256.241 373.159 254.289 372.683C252.337 372.205 250.417 371.595 248.577 370.789C246.739 369.981 244.974 369.014 243.312 367.898C241.64 366.795 240.123 365.468 238.734 364.043C237.352 362.609 236.119 361.031 235.108 359.331C234.088 357.642 233.251 355.825 232.638 353.99L232.636 353.984C232.611 353.909 232.651 353.828 232.726 353.803C232.793 353.777 232.867 353.81 232.898 353.874Z" fill="#E8EAF6"/>
<path d="M305.542 253.562L304.523 252.141L303.423 250.795C303.041 250.359 302.635 249.943 302.243 249.517C301.841 249.1 301.406 248.714 300.99 248.311C300.128 247.537 299.231 246.802 298.292 246.124C297.353 245.448 296.383 244.815 295.378 244.244C294.377 243.667 293.348 243.137 292.29 242.673C291.77 242.423 291.232 242.213 290.693 242.005C290.159 241.784 289.616 241.591 289.068 241.412C288.525 241.217 287.974 241.047 287.417 240.898C286.865 240.733 286.308 240.584 285.744 240.465C285.184 240.33 284.621 240.205 284.052 240.116C283.486 240.011 282.92 239.91 282.347 239.851C281.777 239.777 281.206 239.702 280.632 239.673C280.059 239.631 279.487 239.583 278.912 239.585C278.337 239.574 277.764 239.556 277.191 239.591C276.618 239.611 276.045 239.626 275.476 239.693C274.905 239.744 274.335 239.795 273.772 239.895C273.206 239.977 272.642 240.066 272.087 240.201L271.25 240.383L270.429 240.618L269.609 240.856L268.808 241.148C268.269 241.328 267.749 241.555 267.234 241.793C266.708 242.008 266.215 242.286 265.717 242.554C264.723 243.092 263.789 243.73 262.905 244.424C262.453 244.759 262.056 245.16 261.628 245.523C261.217 245.905 260.847 246.329 260.454 246.729C260.088 247.152 259.754 247.603 259.389 248.03L258.429 249.413L258.424 249.421C258.19 249.759 257.73 249.847 257.387 249.625L256.843 249.271L256.269 248.96L255.669 248.69L255.048 248.461L254.411 248.264L253.76 248.102C253.32 248.012 252.877 247.934 252.427 247.883C250.628 247.681 248.773 247.805 246.978 248.188C245.179 248.553 243.412 249.184 241.85 250.156C241.462 250.402 241.087 250.668 240.726 250.952C240.37 251.241 240.034 251.556 239.73 251.901C239.436 252.252 239.151 252.618 238.942 253.029C238.708 253.428 238.555 253.867 238.431 254.318L238.43 254.324C238.419 254.361 238.38 254.383 238.342 254.373C238.307 254.363 238.285 254.329 238.291 254.294C238.363 253.821 238.461 253.339 238.661 252.894C238.84 252.44 239.101 252.025 239.378 251.622C239.663 251.226 239.987 250.858 240.334 250.514C240.685 250.175 241.057 249.857 241.453 249.572C243.036 248.43 244.844 247.633 246.724 247.123C248.611 246.64 250.577 246.426 252.551 246.567C253.044 246.604 253.536 246.669 254.027 246.75C254.518 246.842 255.006 246.954 255.488 247.101L256.201 247.355L256.9 247.659L257.578 248.016L258.228 248.43L257.187 248.641L258.203 247.14C258.583 246.67 258.965 246.199 259.364 245.747C259.794 245.322 260.2 244.872 260.649 244.468C261.115 244.085 261.549 243.66 262.042 243.312C263.01 242.593 264.027 241.941 265.097 241.398C265.633 241.128 266.166 240.85 266.726 240.637C267.277 240.402 267.832 240.178 268.404 240.004L269.254 239.721L270.12 239.495C270.694 239.332 271.275 239.208 271.861 239.102C272.443 238.975 273.032 238.894 273.621 238.822C274.209 238.731 274.801 238.691 275.393 238.651C275.984 238.594 276.576 238.592 277.169 238.584C277.761 238.562 278.352 238.592 278.943 238.617C279.535 238.627 280.123 238.689 280.712 238.745C281.302 238.788 281.885 238.878 282.469 238.965C283.055 239.04 283.633 239.156 284.211 239.275C284.792 239.38 285.365 239.521 285.935 239.671C286.509 239.806 287.075 239.97 287.636 240.151C288.202 240.315 288.76 240.502 289.31 240.713C289.865 240.909 290.417 241.114 290.954 241.357C291.496 241.585 292.038 241.815 292.562 242.085C293.624 242.589 294.656 243.159 295.655 243.774C296.659 244.384 297.625 245.055 298.556 245.768C299.488 246.482 300.374 247.252 301.222 248.06C301.632 248.48 302.059 248.881 302.453 249.315C302.838 249.757 303.234 250.188 303.607 250.639L304.678 252.032L305.656 253.482C305.678 253.514 305.669 253.559 305.636 253.581C305.608 253.6 305.564 253.592 305.542 253.562Z" fill="#E8EAF6"/>
<path d="M223.857 258.232C223.51 257.87 223.144 257.554 222.743 257.296C222.341 257.03 221.914 256.802 221.466 256.627C221.244 256.533 221.02 256.449 220.787 256.383C220.56 256.306 220.328 256.241 220.092 256.191C219.626 256.076 219.153 255.984 218.675 255.925C217.721 255.799 216.755 255.771 215.793 255.818C214.831 255.867 213.875 256.001 212.933 256.174C212.46 256.26 211.994 256.371 211.533 256.498C211.07 256.62 210.617 256.77 210.169 256.929C209.721 257.092 209.285 257.277 208.856 257.474C208.432 257.681 208.02 257.904 207.623 258.147C207.231 258.396 206.861 258.669 206.504 258.95C206.162 259.245 205.834 259.554 205.562 259.896C205.295 260.239 205.045 260.596 204.893 260.986C204.712 261.366 204.638 261.774 204.582 262.179L204.44 263.223L203.508 262.779L202.099 262.108C201.623 261.898 201.136 261.714 200.655 261.515C199.68 261.154 198.693 260.824 197.684 260.564C195.669 260.038 193.59 259.748 191.5 259.701C189.41 259.653 187.313 259.857 185.257 260.275C183.201 260.696 181.186 261.336 179.251 262.166C178.285 262.583 177.336 263.047 176.41 263.551C175.486 264.06 174.585 264.61 173.706 265.198C172.832 265.791 171.98 266.417 171.154 267.08C170.334 267.748 169.541 268.451 168.777 269.184C168.019 269.924 167.292 270.696 166.595 271.497C166.25 271.899 165.921 272.316 165.583 272.725L164.628 274L163.731 275.318L162.898 276.678L162.13 278.077L161.432 279.513L161.43 279.517C161.413 279.552 161.371 279.567 161.336 279.55C161.301 279.532 161.286 279.491 161.302 279.456L161.96 277.992L162.689 276.561L163.487 275.165L164.35 273.808L165.275 272.491C165.604 272.067 165.924 271.636 166.261 271.218C166.941 270.387 167.654 269.582 168.401 268.808C169.154 268.039 169.937 267.301 170.751 266.596C171.571 265.897 172.416 265.229 173.295 264.603C174.177 263.983 175.085 263.398 176.019 262.856C176.955 262.319 177.916 261.821 178.899 261.371C180.867 260.472 182.926 259.765 185.043 259.282C187.159 258.798 189.331 258.545 191.511 258.533C193.69 258.52 195.875 258.759 198.006 259.249C199.073 259.493 200.123 259.805 201.154 260.172C201.663 260.372 202.179 260.557 202.682 260.77L204.176 261.452L203.102 262.053C203.176 261.48 203.302 260.909 203.549 260.394C203.769 259.866 204.096 259.405 204.44 258.976C204.79 258.55 205.187 258.183 205.599 257.839C205.812 257.68 206.023 257.517 206.242 257.367L206.915 256.955C207.372 256.699 207.839 256.473 208.313 256.266C208.791 256.07 209.273 255.888 209.762 255.733C210.251 255.582 210.744 255.443 211.242 255.333C211.739 255.218 212.239 255.122 212.743 255.051C213.245 254.974 213.751 254.919 214.258 254.887C214.765 254.858 215.273 254.851 215.78 254.858C216.794 254.882 217.807 254.985 218.802 255.191C219.051 255.236 219.297 255.299 219.543 255.367C219.79 255.425 220.032 255.501 220.271 255.59C220.512 255.669 220.749 255.761 220.981 255.868C221.217 255.962 221.446 256.074 221.668 256.197C222.12 256.428 222.545 256.714 222.937 257.036C223.338 257.357 223.67 257.746 223.963 258.137L223.966 258.14C223.989 258.171 223.983 258.216 223.951 258.24C223.922 258.262 223.881 258.258 223.857 258.232Z" fill="#E8EAF6"/>
<path d="M202.985 228.462C202.985 228.462 194.778 213.642 234.177 197.722C239.244 196.53 237.021 203.316 241.829 204.089C246.637 204.862 250.735 200.371 253.257 209.848C255.779 219.325 259.232 231.052 265.807 230.863C272.381 230.672 266.876 233.851 266.876 233.851C266.876 233.851 255.297 235.728 251.101 226.303C246.906 216.88 247.469 222.766 247.469 222.766L202.985 228.462Z" fill="#FF5252"/>
<path d="M202.093 241.022C202.527 242.628 204.263 243.489 205.806 242.872C210.044 241.179 218.351 238.122 226.065 236.817C237.016 234.966 252.618 235.428 252.618 235.428C252.618 235.428 254.235 235.693 249.987 219.671C249.022 216.034 198.371 223.506 199.404 229.085C200.368 234.29 201.392 238.428 202.093 241.022Z" fill="#E8EAF6"/>
<path d="M269.635 234.022C273.117 233.381 275.468 230.295 274.885 227.129C274.302 223.964 271.007 221.917 267.525 222.557C264.043 223.198 261.693 226.284 262.276 229.45C262.858 232.616 266.153 234.663 269.635 234.022Z" fill="#E8EAF6"/>
<path d="M232.214 242.874C236.042 241.285 240.101 240.686 243.964 241.019C244.132 239.898 244.324 238.779 244.538 237.661C240.053 237.262 235.365 237.943 230.955 239.749C231.354 240.8 231.773 241.842 232.214 242.874Z" fill="white"/>
<path d="M223.154 245.149C219.03 245.558 215.17 246.947 211.921 249.066C211.243 248.158 210.545 247.262 209.829 246.378C213.593 243.908 218.047 242.293 222.788 241.802C222.932 242.916 223.055 244.032 223.154 245.149Z" fill="white"/>
<path d="M289.802 426.697L259.433 434.323C256.699 435.009 253.906 433.429 253.088 430.73L243.332 398.55C242.912 397.166 243.079 395.67 243.791 394.413C244.503 393.154 245.7 392.242 247.102 391.89L281.255 383.315C282.674 382.958 284.179 383.206 285.408 384C286.638 384.794 287.484 386.062 287.743 387.503L293.716 420.633C294.21 423.369 292.499 426.02 289.802 426.697ZM261.742 422.844L282.436 417.648L278.343 394.945L255.057 400.792L261.742 422.844Z" fill="#FFD54F"/>
<path d="M235.492 248.427C235.469 248.427 235.447 248.427 235.423 248.424C235.031 248.386 234.743 248.038 234.781 247.645C234.987 245.506 236.511 243.721 238.574 243.203C240.321 242.764 242.19 243.307 243.45 244.621C243.722 244.905 243.713 245.356 243.429 245.63C243.145 245.903 242.693 245.893 242.42 245.608C241.514 244.664 240.175 244.273 238.922 244.587C237.443 244.958 236.35 246.243 236.201 247.782C236.167 248.151 235.856 248.427 235.492 248.427Z" fill="#263238"/>
<path d="M215.746 252.657C215.683 252.657 215.618 252.648 215.554 252.63C215.174 252.524 214.953 252.13 215.059 251.751C215.55 249.999 216.939 248.638 218.687 248.199C220.749 247.683 222.937 248.534 224.129 250.322C224.347 250.65 224.259 251.093 223.931 251.312C223.604 251.531 223.161 251.442 222.942 251.114C222.084 249.828 220.513 249.213 219.034 249.584C217.783 249.899 216.786 250.877 216.433 252.137C216.344 252.451 216.058 252.657 215.746 252.657Z" fill="#263238"/>
<path d="M233.222 271.358C230.5 271.358 227.987 269.754 226.88 267.14C226.727 266.777 226.896 266.359 227.259 266.205C227.623 266.05 228.041 266.22 228.194 266.583C229.255 269.088 231.944 270.425 234.588 269.76C237.217 269.1 238.956 266.665 238.724 263.969C238.691 263.577 238.981 263.231 239.374 263.197C239.763 263.162 240.113 263.455 240.146 263.847C240.439 267.244 238.247 270.313 234.936 271.145C234.362 271.289 233.788 271.358 233.222 271.358Z" fill="#263238"/>
<path d="M260.484 253.312C260.484 253.312 260.419 253.226 260.298 253.064C260.17 252.908 260.021 252.647 259.787 252.36C259.536 252.089 259.29 251.742 258.922 251.396C258.584 251.032 258.158 250.669 257.678 250.312C257.436 250.135 257.187 249.95 256.902 249.799C256.635 249.622 256.342 249.469 256.032 249.327C255.421 249.033 254.746 248.787 254.03 248.585C253.318 248.362 252.549 248.234 251.76 248.12C250.967 248.038 250.148 247.998 249.329 248.057C246.04 248.252 242.82 249.522 240.843 251.036C240.338 251.405 239.934 251.81 239.59 252.181C239.427 252.373 239.285 252.562 239.15 252.736C239.035 252.923 238.929 253.093 238.834 253.248C238.682 253.575 238.558 253.837 238.518 254.028C238.463 254.215 238.433 254.315 238.433 254.315L238.43 254.326C238.418 254.363 238.379 254.385 238.341 254.374C238.306 254.363 238.284 254.327 238.292 254.292C238.292 254.292 238.314 254.185 238.355 253.987C238.381 253.782 238.484 253.503 238.617 253.144C238.704 252.973 238.799 252.786 238.903 252.58C239.028 252.387 239.161 252.177 239.314 251.96C239.64 251.543 240.031 251.082 240.524 250.653C241.488 249.769 242.785 248.936 244.284 248.284C245.78 247.632 247.473 247.134 249.221 246.921C250.093 246.791 250.981 246.78 251.859 246.787C252.736 246.82 253.604 246.939 254.426 247.153C255.243 247.385 256.015 247.696 256.683 248.11C257.364 248.496 257.947 248.967 258.425 249.449C258.681 249.672 258.875 249.936 259.072 250.172C259.273 250.404 259.435 250.646 259.576 250.879C259.885 251.323 260.068 251.777 260.23 252.124C260.376 252.477 260.459 252.756 260.521 252.95C260.58 253.143 260.611 253.246 260.611 253.246C260.622 253.284 260.601 253.325 260.562 253.337C260.533 253.347 260.501 253.336 260.484 253.312Z" fill="#E8EAF6"/>
<path d="M223.87 258.243C223.87 258.243 223.776 258.184 223.599 258.073C223.423 257.959 223.162 257.799 222.82 257.627C222.484 257.445 222.054 257.25 221.555 257.06C221.056 256.865 220.481 256.676 219.841 256.524C218.567 256.201 217.035 256.025 215.409 256.056C213.784 256.106 212.062 256.422 210.502 257.09C209.73 257.438 209.002 257.864 208.364 258.373C207.724 258.88 207.184 259.467 206.725 260.076C206.245 260.674 205.903 261.334 205.577 261.965C205.29 262.615 205.066 263.26 204.9 263.875C204.827 264.186 204.758 264.485 204.691 264.769C204.644 265.06 204.598 265.336 204.555 265.596C204.478 266.119 204.445 266.585 204.39 266.97C204.356 267.74 204.31 268.194 204.31 268.194V268.199C204.307 268.238 204.271 268.267 204.232 268.263C204.201 268.26 204.177 268.238 204.17 268.21C204.17 268.21 204.051 267.776 203.889 266.995C203.83 266.601 203.753 266.12 203.723 265.56C203.718 265.279 203.712 264.98 203.707 264.664C203.718 264.348 203.747 264.013 203.78 263.664C203.815 263.315 203.899 262.956 203.963 262.58C204.056 262.209 204.176 261.83 204.303 261.441C204.597 260.678 204.984 259.883 205.547 259.171C206.12 258.475 206.784 257.803 207.577 257.294C208.36 256.778 209.205 256.348 210.084 256.028C211.847 255.398 213.702 255.18 215.413 255.23C216.268 255.265 217.091 255.344 217.858 255.492C218.625 255.643 219.34 255.825 219.982 256.044C220.628 256.254 221.202 256.495 221.697 256.735C222.193 256.972 222.611 257.203 222.945 257.419C223.284 257.626 223.53 257.807 223.696 257.934C223.864 258.058 223.953 258.125 223.953 258.125C223.985 258.148 223.991 258.193 223.968 258.225C223.943 258.255 223.901 258.262 223.87 258.243Z" fill="#E8EAF6"/>
<path d="M197.237 282.221L196.278 283.837C195.988 284.387 195.766 284.961 195.506 285.52C195.262 286.084 195.122 286.694 194.925 287.278C194.739 287.867 194.68 288.487 194.551 289.089C194.436 289.695 194.45 290.317 194.392 290.927C194.357 291.541 194.435 292.157 194.45 292.77C194.498 293.381 194.635 293.984 194.721 294.59C194.853 295.188 195.043 295.773 195.2 296.365C195.41 296.94 195.652 297.503 195.874 298.073L196.736 299.692C197.082 300.197 197.413 300.71 197.767 301.207C198.164 301.671 198.543 302.15 198.952 302.602C199.395 303.021 199.819 303.459 200.273 303.865C200.756 304.236 201.224 304.626 201.715 304.983C202.232 305.304 202.741 305.638 203.261 305.949L204.895 306.753L205.889 307.244L204.925 307.814C204.711 307.941 204.499 308.069 204.31 308.222C204.121 308.374 203.947 308.541 203.797 308.724C203.644 308.905 203.519 309.104 203.412 309.308C203.311 309.517 203.233 309.733 203.185 309.955C203.144 310.178 203.112 310.404 203.13 310.628C203.133 310.853 203.187 311.071 203.246 311.283C203.389 311.698 203.638 312.067 203.969 312.321C204.141 312.439 204.317 312.553 204.52 312.615C204.716 312.691 204.93 312.722 205.148 312.74C205.586 312.769 206.053 312.679 206.509 312.51C206.737 312.433 206.962 312.321 207.184 312.206C207.405 312.086 207.625 311.959 207.836 311.808C208.265 311.525 208.665 311.178 209.058 310.826L210.997 309.084L210.309 311.639L210.083 312.48C210.016 312.762 209.982 313.049 209.927 313.333C209.853 313.905 209.818 314.481 209.845 315.055C209.891 316.204 210.15 317.341 210.587 318.41C211.024 319.481 211.635 320.485 212.368 321.395C212.733 321.851 213.129 322.285 213.554 322.689C213.974 323.097 214.421 323.481 214.892 323.832C215.121 324.016 215.365 324.181 215.609 324.343C215.849 324.513 216.1 324.667 216.354 324.813C216.604 324.967 216.861 325.109 217.125 325.239C217.383 325.378 217.646 325.506 217.917 325.618C218.183 325.741 218.452 325.855 218.728 325.95C219.001 326.055 219.275 326.153 219.556 326.231C219.833 326.32 220.112 326.399 220.395 326.458C220.677 326.529 220.96 326.588 221.244 326.628C221.528 326.681 221.812 326.718 222.098 326.736C222.382 326.77 222.667 326.781 222.951 326.78C223.518 326.795 224.082 326.748 224.631 326.656C225.183 326.571 225.716 326.419 226.229 326.232C226.488 326.14 226.727 326.008 226.978 325.903C227.217 325.775 227.446 325.629 227.682 325.496L229.223 324.629L229.381 326.358C229.479 327.43 229.789 328.495 230.233 329.511C230.707 330.52 231.325 331.466 232.044 332.335C232.788 333.184 233.597 333.985 234.523 334.643C234.754 334.808 234.977 334.984 235.212 335.141L235.943 335.58C236.416 335.895 236.951 336.104 237.457 336.359C237.967 336.607 238.52 336.765 239.046 336.976C239.589 337.144 240.146 337.275 240.692 337.429L242.379 337.714L244.089 337.844L245.81 337.833L246.679 337.768C246.987 337.744 247.221 337.693 247.496 337.659C248.585 337.487 249.702 337.194 250.765 336.807C252.904 336.029 254.92 334.875 256.726 333.458C257.633 332.752 258.474 331.964 259.256 331.123C260.03 330.276 260.765 329.386 261.392 328.426C262.023 327.469 262.574 326.461 263.028 325.413C263.491 324.367 263.813 323.268 264.061 322.156C264.296 321.043 264.443 319.904 264.428 318.761C264.422 317.617 264.289 316.475 264.063 315.345L263.312 311.589L265.898 314.371C266.162 314.654 266.419 314.949 266.718 315.192C266.857 315.328 267.015 315.436 267.172 315.548C267.324 315.666 267.484 315.774 267.654 315.863C267.981 316.065 268.334 316.222 268.695 316.354C269.056 316.487 269.434 316.581 269.818 316.644C270.586 316.766 271.386 316.761 272.166 316.607C272.556 316.531 272.943 316.424 273.314 316.277C273.685 316.133 274.051 315.961 274.384 315.744C274.728 315.54 275.037 315.287 275.329 315.019C275.62 314.749 275.867 314.441 276.085 314.113C276.28 313.776 276.464 313.423 276.554 313.042C276.671 312.666 276.691 312.269 276.68 311.87C276.679 311.67 276.626 311.474 276.604 311.273C276.559 311.075 276.491 310.881 276.437 310.683L276.189 310.11L275.871 309.563C275.63 309.214 275.386 308.857 275.085 308.543C274.81 308.205 274.47 307.926 274.155 307.62L274.143 307.607C274.086 307.553 274.085 307.463 274.141 307.406C274.191 307.354 274.272 307.349 274.328 307.392C274.686 307.663 275.072 307.906 275.403 308.221C275.755 308.511 276.068 308.851 276.369 309.204L276.779 309.772L277.124 310.393C277.212 310.615 277.312 310.834 277.388 311.063C277.442 311.299 277.525 311.531 277.552 311.775C277.617 312.259 277.638 312.763 277.541 313.252C277.472 313.747 277.292 314.216 277.084 314.667C276.855 315.107 276.581 315.524 276.255 315.894C275.931 316.266 275.57 316.606 275.172 316.89C274.782 317.188 274.355 317.434 273.915 317.646C273.476 317.862 273.013 318.031 272.54 318.164C271.594 318.425 270.593 318.53 269.597 318.432C269.101 318.384 268.605 318.293 268.123 318.152C267.641 318.011 267.164 317.833 266.718 317.599C266.487 317.493 266.27 317.367 266.059 317.228C265.844 317.095 265.629 316.962 265.436 316.801C265.025 316.506 264.669 316.156 264.308 315.807L266.143 314.833C266.48 316.091 266.684 317.389 266.757 318.698C266.836 320.009 266.736 321.327 266.528 322.623C266.108 325.224 265.09 327.695 263.728 329.921C263.048 331.038 262.256 332.084 261.388 333.057C260.518 334.028 259.58 334.94 258.566 335.761C257.55 336.579 256.464 337.311 255.327 337.959C254.194 338.612 252.994 339.156 251.747 339.579C250.498 340.008 249.227 340.325 247.889 340.512C247.555 340.55 247.184 340.608 246.88 340.625L245.914 340.68L243.954 340.652L242 340.441C241.354 340.322 240.711 340.184 240.069 340.053C239.44 339.86 238.806 339.686 238.184 339.471C237.578 339.213 236.952 339.003 236.367 338.699C235.786 338.388 235.183 338.122 234.638 337.746L233.805 337.215C233.537 337.024 233.28 336.815 233.017 336.616C231.964 335.821 231.038 334.865 230.196 333.847C229.377 332.804 228.673 331.666 228.136 330.436C227.626 329.195 227.265 327.874 227.175 326.493L228.874 327.355C228.565 327.526 228.261 327.706 227.947 327.863C227.624 327.998 227.307 328.155 226.975 328.266C226.313 328.493 225.635 328.666 224.952 328.757C224.269 328.854 223.581 328.893 222.903 328.862C222.561 328.855 222.223 328.833 221.889 328.787C221.552 328.757 221.219 328.706 220.891 328.638C220.558 328.583 220.232 328.507 219.91 328.419C219.583 328.342 219.265 328.244 218.95 328.136C218.631 328.039 218.32 327.921 218.013 327.794C217.701 327.678 217.4 327.542 217.101 327.398C216.799 327.263 216.505 327.111 216.217 326.949C215.923 326.796 215.637 326.63 215.361 326.45C215.078 326.28 214.801 326.1 214.535 325.904C214.264 325.715 213.996 325.523 213.742 325.311C213.222 324.905 212.73 324.462 212.266 323.991C211.798 323.526 211.361 323.025 210.958 322.499C210.15 321.449 209.475 320.284 208.997 319.033C208.519 317.783 208.244 316.445 208.22 315.1C208.205 314.427 208.26 313.755 208.362 313.093C208.43 312.765 208.481 312.432 208.564 312.109L208.847 311.15L210.098 311.962C209.205 312.745 208.206 313.472 206.992 313.892C206.39 314.1 205.726 314.223 205.039 314.163C204.697 314.129 204.351 314.061 204.024 313.927C203.692 313.809 203.388 313.613 203.109 313.397C202.559 312.948 202.175 312.328 201.976 311.673C201.888 311.342 201.825 311.004 201.828 310.665C201.814 310.325 201.866 309.989 201.94 309.662C202.021 309.336 202.144 309.024 202.299 308.73C202.46 308.44 202.647 308.166 202.864 307.923C203.08 307.677 203.321 307.461 203.576 307.268C203.832 307.074 204.106 306.917 204.382 306.767L204.412 307.827L202.702 306.92C202.157 306.574 201.627 306.205 201.091 305.848C200.581 305.455 200.097 305.028 199.6 304.619C199.133 304.178 198.696 303.703 198.245 303.245C197.829 302.757 197.443 302.24 197.042 301.739C196.684 301.206 196.35 300.656 196.006 300.116L195.154 298.392C194.936 297.788 194.701 297.192 194.501 296.584C194.353 295.961 194.174 295.346 194.056 294.718C193.983 294.083 193.862 293.453 193.83 292.816C193.831 292.177 193.772 291.538 193.826 290.903C193.903 290.27 193.911 289.629 194.047 289.007C194.198 288.389 194.279 287.753 194.488 287.153C194.709 286.557 194.869 285.942 195.14 285.365C195.423 284.795 195.675 284.204 195.986 283.658L196.992 282.071C197.034 282.005 197.123 281.985 197.189 282.027C197.256 282.069 197.276 282.155 197.237 282.221Z" fill="#E8EAF6"/>
<path d="M232.169 260.05C236.491 258.965 239.51 256.151 238.911 253.767C238.312 251.382 234.322 250.329 230 251.414C225.678 252.5 222.659 255.313 223.258 257.698C223.857 260.083 227.847 261.136 232.169 260.05Z" fill="#FF8A80"/>
<path d="M427.059 113.066C427.059 113.066 427.239 111.903 427.354 109.833C427.467 107.769 427.563 104.814 427.354 101.293C427.145 97.7731 426.634 93.6928 425.718 89.4277C425.466 88.3654 425.239 87.2824 424.928 86.2057C424.781 85.6664 424.633 85.1234 424.485 84.5783C424.32 84.0382 424.156 83.4953 423.99 82.9502C423.68 81.855 423.254 80.787 422.891 79.6982C422.471 78.6288 422.062 77.5514 421.605 76.4969C420.673 74.3936 419.643 72.3389 418.461 70.4204C418.172 69.9388 417.884 69.4586 417.597 68.9813C417.293 68.5161 416.99 68.0524 416.688 67.5922C416.394 67.1299 416.101 66.6704 415.81 66.2138C415.505 65.7671 415.202 65.3234 414.902 64.8832C414.612 64.4365 414.325 63.9935 414.042 63.5547C413.738 63.1288 413.446 62.7007 413.158 62.2762C412.875 61.8474 412.594 61.4236 412.317 61.0048C412.027 60.5945 411.739 60.1893 411.456 59.789C410.352 58.1616 409.194 56.7033 408.18 55.2871C407.64 54.6043 407.123 53.95 406.632 53.3279C406.389 53.0097 406.153 52.6993 405.922 52.3983C405.681 52.1057 405.446 51.8225 405.22 51.5471C404.767 50.9877 404.343 50.4648 403.951 49.9803C403.758 49.7306 403.574 49.4916 403.398 49.2633C403.211 49.045 403.034 48.8366 402.864 48.639C402.19 47.8428 401.67 47.1928 401.32 46.7398C400.972 46.281 400.787 46.0363 400.787 46.0363L400.783 46.0306C400.684 45.9007 400.71 45.7167 400.84 45.6182C400.926 45.5526 401.037 45.5426 401.131 45.5811C401.131 45.5811 401.415 45.7003 401.935 45.945C402.456 46.1876 403.215 46.5578 404.167 47.0608C405.139 47.5403 406.216 48.2623 407.478 49.0792C408.119 49.4766 408.754 49.9561 409.418 50.4733C410.081 50.9913 410.786 51.5343 411.499 52.1264C412.872 53.365 414.375 54.7149 415.78 56.3223C416.136 56.719 416.511 57.1107 416.865 57.5288C417.204 57.959 417.548 58.3935 417.896 58.8337C418.24 59.2768 418.586 59.727 418.925 60.1871C419.258 60.6537 419.562 61.146 419.882 61.6333C420.189 62.1285 420.499 62.6279 420.812 63.1309C421.116 63.6389 421.38 64.1761 421.66 64.7055C421.937 65.237 422.22 65.77 422.485 66.3144C422.73 66.8687 422.976 67.4259 423.223 67.9853C423.735 69.0933 424.172 70.2434 424.616 71.3914C425.079 72.5308 425.456 73.708 425.871 74.866C426.268 76.031 426.611 77.2132 426.963 78.3833C427.257 79.5712 427.612 80.7356 427.847 81.92C427.975 82.5086 428.102 83.095 428.229 83.6779C428.349 84.2623 428.436 84.8502 428.537 85.4309C428.75 86.5903 428.877 87.7483 429.028 88.8798C429.275 91.1508 429.463 93.3468 429.487 95.433C429.543 97.517 429.48 99.4847 429.387 101.293C429.001 108.543 427.619 113.186 427.619 113.186L427.617 113.192C427.572 113.343 427.413 113.429 427.262 113.384C427.122 113.342 427.038 113.205 427.059 113.066Z" fill="#FFB74D"/>
<path d="M65.3069 93.7734C65.3069 93.7734 65.1835 92.6033 64.7654 90.5728C64.3466 88.5487 63.6838 85.6677 62.5808 82.3166C61.4785 78.9676 59.9409 75.1534 57.9646 71.2643C57.4502 70.3019 56.953 69.3123 56.3765 68.3513C56.0968 67.8675 55.815 67.3802 55.5317 66.8908C55.2349 66.4106 54.9367 65.9276 54.6371 65.4432C54.057 64.4636 53.3728 63.5404 52.7435 62.5808C52.0636 61.654 51.3929 60.7172 50.6809 59.8147C49.2418 58.0196 47.7207 56.2966 46.0876 54.7441C45.6845 54.3524 45.2835 53.9621 44.884 53.574C44.4702 53.2023 44.0585 52.832 43.6497 52.4639C43.2466 52.0921 42.8456 51.7226 42.4475 51.3566C42.038 51.0027 41.632 50.6509 41.2289 50.3028C40.8351 49.9453 40.4441 49.59 40.0567 49.2383C39.6543 48.9044 39.2626 48.5655 38.8759 48.228C38.4921 47.8863 38.1125 47.5481 37.738 47.2142C37.352 46.8917 36.9703 46.5735 36.5943 46.2596C35.111 44.9682 33.6177 43.8552 32.2764 42.7451C31.5801 42.2235 30.9122 41.7234 30.278 41.2475C29.9619 41.0021 29.6537 40.7623 29.3548 40.5297C29.0465 40.3093 28.7476 40.0945 28.4579 39.8869C27.8772 39.4624 27.3335 39.0643 26.8312 38.6969C26.5815 38.5049 26.3418 38.3209 26.1135 38.1446C25.8766 37.9813 25.6519 37.825 25.4378 37.6773C24.5824 37.0802 23.9132 36.585 23.4587 36.2361C23.0056 35.8815 22.7638 35.6925 22.7638 35.6925L22.7581 35.6875C22.6296 35.5876 22.6075 35.4021 22.7074 35.2744C22.7745 35.1888 22.8794 35.1502 22.98 35.1638C22.98 35.1638 23.2846 35.2059 23.8497 35.31C24.4162 35.4114 25.2438 35.5755 26.2933 35.818C27.3549 36.0335 28.5814 36.4552 30.0097 36.9232C30.731 37.1436 31.468 37.4447 32.2421 37.7744C33.0148 38.1061 33.8353 38.45 34.6772 38.8403C36.321 39.6864 38.1197 40.6068 39.8876 41.8019C40.3335 42.0944 40.7966 42.3769 41.2453 42.6908C41.6834 43.0197 42.1272 43.3522 42.5759 43.6883C43.0219 44.0286 43.4706 44.3753 43.9173 44.7335C44.3582 45.0995 44.7777 45.4976 45.2115 45.8864C45.6353 46.2867 46.0627 46.6898 46.4936 47.0965C46.9174 47.5096 47.3098 47.9612 47.7165 48.4021C48.121 48.8452 48.5305 49.2875 48.9258 49.7463C49.3039 50.2193 49.6842 50.6952 50.0666 51.1732C50.8457 52.1128 51.5613 53.1131 52.2841 54.1098C53.0232 55.093 53.6896 56.1339 54.3866 57.1478C55.068 58.173 55.7023 59.2275 56.3415 60.2692C56.9301 61.3422 57.5701 62.3774 58.1009 63.4619C58.3749 63.9984 58.6482 64.5321 58.9193 65.0643C59.1854 65.598 59.4201 66.1445 59.6648 66.6803C60.1678 67.7462 60.5866 68.8336 61.0218 69.8888C61.8409 72.022 62.5843 74.0961 63.1415 76.1066C63.7287 78.1065 64.1711 80.025 64.5449 81.7972C66.0261 88.9047 65.8762 93.7477 65.8762 93.7477V93.7534C65.8713 93.9111 65.7393 94.0352 65.5816 94.0303C65.4375 94.0245 65.3219 93.9132 65.3069 93.7734Z" fill="#FFB74D"/>
<path d="M268.406 116.391C268.406 116.391 268.625 114.876 268.802 112.19C268.891 110.849 268.977 109.22 269.034 107.351C269.1 105.483 269.095 103.373 269.063 101.076C269.002 98.7785 268.912 96.2928 268.703 93.673C268.617 92.3624 268.472 91.0196 268.362 89.6476C268.201 88.2785 268.082 86.878 267.879 85.4617C267.695 84.0441 267.497 82.6057 267.251 81.156C267.032 79.7034 266.76 78.2422 266.496 76.7689C266.231 75.2963 265.896 73.8244 265.598 72.3418C265.239 70.8714 264.918 69.3881 264.527 67.9219C263.754 64.9889 262.875 62.0858 261.86 59.2854C261.61 58.5848 261.361 57.8871 261.113 57.1922C260.851 56.5037 260.591 55.8187 260.331 55.1381C260.073 54.4575 259.812 53.7825 259.576 53.1054C259.313 52.4376 259.052 51.7755 258.793 51.1184C258.546 50.4571 258.302 49.8007 258.059 49.1507C257.806 48.505 257.555 47.865 257.307 47.2329C256.811 45.9672 256.373 44.7073 255.869 43.5122C255.366 42.3179 254.948 41.12 254.458 39.9998C253.985 38.8711 253.517 37.7845 253.093 36.7243C252.656 35.6719 252.193 34.6831 251.784 33.7235C251.37 32.7667 250.996 31.8449 250.596 31.0038C250.212 30.1512 249.853 29.3528 249.52 28.6144C249.199 27.8667 248.911 27.1725 248.611 26.5696C248.038 25.3467 247.605 24.3671 247.317 23.6915C247.034 23.0115 246.883 22.6491 246.883 22.6491L246.878 22.6384C246.817 22.4907 246.887 22.3209 247.034 22.2595C247.146 22.2132 247.271 22.2417 247.351 22.323C247.351 22.323 247.628 22.602 248.147 23.125C248.661 23.6522 249.406 24.4363 250.329 25.4587C251.263 26.4747 252.288 27.7867 253.473 29.2979C254.082 30.0434 254.642 30.8925 255.264 31.7714C255.865 32.6626 256.532 33.5829 257.149 34.5889C257.774 35.5913 258.395 36.653 259.052 37.7481C259.69 38.8526 260.292 40.0241 260.918 41.2277C261.564 42.4227 262.135 43.6927 262.718 44.9919C263.005 45.6433 263.308 46.2976 263.577 46.9725C263.835 47.6517 264.097 48.3366 264.36 49.028C264.608 49.725 264.858 50.4271 265.11 51.1348C265.345 51.8483 265.558 52.5746 265.777 53.3031C265.994 54.0329 266.226 54.7614 266.418 55.5062C266.606 56.2518 266.793 57.0017 266.982 57.7544C267.742 60.7609 268.375 63.8431 268.982 66.9202C269.29 68.4585 269.526 70.0102 269.8 71.5456C270.013 73.0924 270.262 74.6256 270.439 76.1567C270.818 79.2146 271.074 82.2354 271.218 85.1599C271.37 88.0837 271.442 90.9112 271.396 93.5902C271.372 96.2686 271.238 98.7964 271.093 101.124C270.92 103.452 270.735 105.579 270.501 107.459C270.282 109.339 270.041 110.971 269.803 112.309C269.346 114.984 268.965 116.497 268.965 116.497C268.928 116.651 268.774 116.745 268.621 116.709C268.479 116.675 268.387 116.535 268.406 116.391Z" fill="#FFD54F"/>
<path d="M268.407 117.082C268.407 117.082 268.625 115.566 268.803 112.881C268.891 111.54 268.977 109.911 269.034 108.042C269.1 106.174 269.095 104.064 269.063 101.767C269.002 99.4697 268.912 96.984 268.703 94.3642C268.617 93.0536 268.472 91.7108 268.362 90.3395C268.201 88.9704 268.082 87.5699 267.879 86.1537C267.695 84.736 267.497 83.2977 267.251 81.8479C267.032 80.3953 266.76 78.9341 266.496 77.4608C266.231 75.9882 265.896 74.5163 265.598 73.0338C265.239 71.5633 264.918 70.08 264.527 68.6146C263.754 65.6815 262.875 62.7784 261.86 59.9781C261.61 59.2775 261.362 58.5797 261.114 57.8848C260.852 57.1963 260.591 56.5114 260.332 55.8307C260.074 55.1501 259.813 54.4759 259.577 53.7981C259.313 53.1303 259.053 52.4682 258.793 51.8111C258.546 51.1497 258.302 50.4933 258.06 49.8433C257.807 49.1977 257.556 48.5577 257.308 47.9256C256.812 46.6599 256.373 45.3999 255.87 44.2056C255.367 43.0112 254.949 41.8126 254.458 40.6932C253.986 39.5645 253.518 38.4779 253.094 37.4177C252.657 36.3653 252.194 35.3764 251.785 34.4168C251.37 33.4594 250.997 32.5383 250.597 31.6971C250.213 30.8438 249.854 30.0462 249.521 29.3077C249.2 28.56 248.912 27.8658 248.612 27.2629C248.039 26.0401 247.605 25.0605 247.318 24.3848C247.035 23.7049 246.883 23.3425 246.883 23.3425L246.879 23.3318C246.818 23.1841 246.888 23.0143 247.035 22.9529C247.147 22.9065 247.272 22.9351 247.351 23.0164C247.351 23.0164 247.628 23.2954 248.148 23.8183C248.662 24.3456 249.406 25.1297 250.33 26.1521C251.263 27.168 252.289 28.4801 253.474 29.9912C254.083 30.7368 254.643 31.5858 255.265 32.4648C255.865 33.3559 256.533 34.2763 257.15 35.2823C257.774 36.2847 258.396 37.3463 259.053 38.4415C259.691 39.5459 260.292 40.7174 260.919 41.9211C261.565 43.1161 262.136 44.3861 262.719 45.6853C263.006 46.3367 263.309 46.9909 263.578 47.6659C263.836 48.3451 264.098 49.03 264.36 49.7213C264.609 50.4177 264.859 51.1204 265.111 51.8282C265.346 52.5417 265.558 53.268 265.778 53.9964C265.994 54.7263 266.227 55.4547 266.419 56.2003C266.606 56.9459 266.794 57.6957 266.983 58.4484C267.743 61.455 268.377 64.5371 268.982 67.6143C269.291 69.1525 269.527 70.7043 269.801 72.2397C270.014 73.7865 270.263 75.3204 270.44 76.8508C270.819 79.9087 271.075 82.9295 271.218 85.854C271.371 88.7778 271.442 91.6052 271.397 94.2843C271.372 96.9626 271.238 99.4911 271.094 101.818C270.921 104.146 270.736 106.273 270.501 108.153C270.283 110.033 270.042 111.665 269.804 113.003C269.347 115.678 268.966 117.191 268.966 117.191C268.929 117.345 268.775 117.439 268.621 117.403C268.479 117.366 268.387 117.224 268.407 117.082Z" fill="#FFD54F"/>
<path d="M267.716 117.082C267.716 117.082 267.935 115.566 268.112 112.881C268.2 111.54 268.287 109.911 268.343 108.042C268.409 106.174 268.404 104.064 268.372 101.767C268.311 99.4697 268.222 96.984 268.013 94.3642C267.926 93.0536 267.781 91.7108 267.672 90.3395C267.51 88.9704 267.391 87.5699 267.188 86.1537C267.005 84.736 266.806 83.2977 266.561 81.8479C266.341 80.3953 266.069 78.9341 265.805 77.4608C265.541 75.9882 265.205 74.5163 264.907 73.0338C264.548 71.5633 264.227 70.08 263.837 68.6146C263.063 65.6815 262.184 62.7784 261.17 59.9781C260.919 59.2775 260.671 58.5797 260.424 57.8848C260.161 57.1963 259.901 56.5114 259.641 55.8307C259.383 55.1501 259.122 54.4759 258.886 53.7981C258.623 53.1303 258.362 52.4682 258.103 51.8111C257.856 51.1497 257.612 50.4933 257.369 49.8433C257.117 49.1977 256.866 48.5577 256.617 47.9256C256.121 46.6599 255.683 45.3999 255.179 44.2056C254.676 43.0112 254.258 41.8126 253.768 40.6932C253.295 39.5645 252.827 38.4779 252.403 37.4177C251.966 36.3653 251.503 35.3764 251.094 34.4168C250.68 33.4594 250.306 32.5383 249.906 31.6971C249.522 30.8438 249.163 30.0462 248.83 29.3077C248.509 28.56 248.221 27.8658 247.922 27.2629C247.348 26.0401 246.915 25.0605 246.627 24.3848C246.344 23.7049 246.193 23.3425 246.193 23.3425L246.189 23.3318C246.127 23.1841 246.197 23.0143 246.344 22.9529C246.456 22.9065 246.581 22.9351 246.661 23.0164C246.661 23.0164 246.938 23.2954 247.457 23.8183C247.971 24.3456 248.716 25.1297 249.64 26.1521C250.573 27.168 251.598 28.4801 252.783 29.9912C253.392 30.7368 253.952 31.5858 254.573 32.4648C255.174 33.3559 255.842 34.2763 256.46 35.2823C257.083 36.2847 257.705 37.3463 258.362 38.4415C259 39.5459 259.602 40.7174 260.228 41.9211C260.874 43.1161 261.445 44.3861 262.028 45.6853C262.315 46.3367 262.618 46.9909 262.887 47.6659C263.145 48.3451 263.407 49.03 263.67 49.7213C263.918 50.4177 264.169 51.1204 264.42 51.8282C264.655 52.5417 264.868 53.268 265.087 53.9964C265.304 54.7263 265.536 55.4547 265.728 56.2003C265.916 56.9459 266.103 57.6957 266.293 58.4484C267.052 61.455 267.686 64.5371 268.292 67.6143C268.6 69.1525 268.836 70.7043 269.109 72.2397C269.323 73.7865 269.572 75.3204 269.749 76.8508C270.128 79.9087 270.384 82.9295 270.528 85.854C270.68 88.7778 270.752 91.6052 270.706 94.2843C270.682 96.9626 270.548 99.4911 270.403 101.818C270.229 104.146 270.045 106.273 269.811 108.153C269.592 110.033 269.35 111.665 269.114 113.003C268.656 115.678 268.275 117.191 268.275 117.191C268.238 117.345 268.084 117.439 267.931 117.403C267.789 117.366 267.697 117.224 267.716 117.082Z" fill="#FFD54F"/>
<path d="M246.318 158.497C246.318 158.497 246.537 156.982 246.714 154.296C246.803 152.956 246.889 151.326 246.946 149.457C247.012 147.589 247.007 145.479 246.975 143.182C246.913 140.885 246.824 138.399 246.615 135.779C246.529 134.468 246.385 133.126 246.274 131.754C246.113 130.384 245.994 128.984 245.79 127.568C245.607 126.15 245.409 124.712 245.163 123.262C244.944 121.809 244.672 120.348 244.408 118.875C244.144 117.402 243.808 115.93 243.509 114.448C243.151 112.977 242.83 111.494 242.439 110.028C241.665 107.095 240.786 104.192 239.772 101.391C239.521 100.691 239.273 99.9931 239.025 99.2981C238.763 98.6096 238.502 97.9247 238.243 97.2441C237.985 96.5634 237.724 95.8892 237.488 95.2114C237.225 94.5443 236.964 93.8815 236.704 93.2244C236.458 92.563 236.214 91.9067 235.971 91.2567C235.718 90.611 235.467 89.971 235.219 89.3389C234.723 88.0732 234.284 86.8132 233.781 85.6189C233.278 84.4246 232.86 83.226 232.369 82.1065C231.897 80.9778 231.429 79.8905 231.005 78.831C230.568 77.7787 230.105 76.7898 229.696 75.8309C229.282 74.8734 228.908 73.9523 228.508 73.1112C228.124 72.2579 227.765 71.4602 227.432 70.7218C227.111 69.9741 226.823 69.2799 226.523 68.677C225.95 67.4541 225.517 66.4745 225.229 65.7989C224.946 65.119 224.795 64.7565 224.795 64.7565L224.79 64.7458C224.729 64.5981 224.799 64.4283 224.946 64.367C225.058 64.3206 225.183 64.3491 225.263 64.4305C225.263 64.4305 225.539 64.7094 226.058 65.2324C226.573 65.7596 227.317 66.5437 228.241 67.5661C229.174 68.5821 230.199 69.8942 231.384 71.4053C231.993 72.1508 232.554 72.9999 233.174 73.8796C233.775 74.77 234.443 75.6903 235.061 76.697C235.685 77.6995 236.306 78.7611 236.963 79.8563C237.601 80.9607 238.203 82.1329 238.829 83.3358C239.476 84.5309 240.046 85.8008 240.629 87.1001C240.916 87.7514 241.219 88.4057 241.488 89.0806C241.747 89.7598 242.008 90.4448 242.271 91.1361C242.519 91.8325 242.77 92.5352 243.021 93.2423C243.256 93.9557 243.47 94.682 243.689 95.4105C243.904 96.1404 244.137 96.8688 244.329 97.6144C244.517 98.3599 244.705 99.1098 244.894 99.8625C245.653 102.869 246.287 105.95 246.893 109.029C247.201 110.567 247.437 112.119 247.711 113.654C247.924 115.201 248.173 116.734 248.35 118.266C248.73 121.323 248.985 124.344 249.129 127.269C249.282 130.193 249.353 133.02 249.308 135.699C249.284 138.377 249.149 140.905 249.005 143.233C248.832 145.561 248.647 147.689 248.412 149.567C248.194 151.447 247.952 153.08 247.715 154.417C247.258 157.093 246.877 158.606 246.877 158.606C246.84 158.76 246.686 158.854 246.532 158.817C246.391 158.781 246.3 158.64 246.318 158.497Z" fill="#FFD54F"/>
<path d="M376.459 21.1582L373.393 30.0258L362.854 31.3479L371.58 35.8213L370.497 43.7051L377.165 39.9266L385.233 44.9765L382.42 35.5409L387.865 30.394L380.45 29.9673L376.459 21.1582Z" fill="#FFD54F"/>
<path d="M174.152 6.90234L171.086 15.77L160.547 17.092L169.272 21.5647L168.189 29.4485L174.857 25.6707L182.926 30.7206L180.113 21.2851L185.558 16.1381L178.143 15.7115L174.152 6.90234Z" fill="#FFB74D"/>
<path d="M62.0756 0L59.0099 8.86764L48.4706 10.1897L57.1955 14.6624L56.1125 22.5469L62.7812 18.7684L70.8498 23.8183L68.0359 14.3827L73.481 9.23579L66.066 8.80914L62.0756 0Z" fill="#FFB74D"/>
<path d="M335.252 37.4443L333.744 41.8036L328.564 42.4536L332.853 44.6518L332.321 48.5273L335.598 46.6701L339.564 49.1523L338.182 44.5148L340.858 41.9841L337.213 41.7743L335.252 37.4443Z" fill="#FFB74D"/>
<path d="M312.497 69.2256L310.99 73.5848L305.81 74.2348L310.098 76.433L309.566 80.3092L312.844 78.4514L316.81 80.9335L315.427 76.296L318.104 73.7661L314.458 73.5563L312.497 69.2256Z" fill="#FFD54F"/>
<path d="M288.672 18.334L287.166 22.6925L281.984 23.3425L286.274 25.5414L285.742 29.4169L289.019 27.5598L292.985 30.0419L291.602 25.4037L294.279 22.8738L290.634 22.664L288.672 18.334Z" fill="#FFD54F"/>
<path d="M482.552 166.249C482.552 166.249 482.929 164.817 483.825 162.408C484.701 159.988 486.166 156.609 488.228 152.691C489.273 150.742 490.45 148.645 491.824 146.503C493.167 144.339 494.743 142.159 496.43 139.941C497.3 138.853 498.161 137.724 499.113 136.647C499.583 136.103 500.043 135.544 500.535 135.009C501.033 134.479 501.534 133.945 502.037 133.41C503.025 132.321 504.126 131.326 505.177 130.269C506.277 129.266 507.376 128.247 508.521 127.279C509.681 126.331 510.81 125.337 512.011 124.443C513.194 123.525 514.372 122.603 515.603 121.773C516.212 121.346 516.818 120.922 517.421 120.499C518.04 120.1 518.667 119.721 519.29 119.341C519.914 118.964 520.525 118.571 521.157 118.228C521.797 117.897 522.43 117.568 523.06 117.242C523.696 116.93 524.319 116.602 524.954 116.318C525.597 116.052 526.234 115.79 526.865 115.529C527.499 115.279 528.126 115.031 528.745 114.787C529.372 114.562 530.005 114.378 530.621 114.176C531.859 113.789 533.052 113.383 534.242 113.116C535.43 112.84 536.57 112.562 537.671 112.326C538.781 112.128 539.851 111.973 540.863 111.818C541.874 111.664 542.834 111.532 543.749 111.487C545.572 111.366 547.144 111.223 548.458 111.278C549.766 111.296 550.79 111.337 551.487 111.375C552.184 111.42 552.556 111.443 552.556 111.443C552.715 111.453 552.837 111.592 552.826 111.751C552.818 111.87 552.74 111.967 552.635 112.005L552.62 112.01C552.62 112.01 552.269 112.135 551.612 112.371C550.957 112.601 549.995 112.923 548.778 113.298C548.474 113.391 548.153 113.489 547.817 113.591C547.486 113.711 547.139 113.836 546.777 113.967C546.055 114.211 545.274 114.477 544.44 114.759C544.024 114.897 543.595 115.039 543.154 115.185C542.719 115.349 542.271 115.519 541.811 115.692C540.894 116.023 539.929 116.371 538.923 116.734C536.948 117.56 534.79 118.347 532.583 119.358C532.028 119.6 531.466 119.844 530.895 120.091C530.335 120.358 529.769 120.628 529.196 120.902C528.62 121.165 528.037 121.431 527.449 121.7C526.87 121.988 526.287 122.279 525.697 122.572C525.103 122.854 524.503 123.138 523.899 123.425C523.304 123.732 522.706 124.042 522.104 124.353C521.498 124.659 520.888 124.968 520.276 125.278C519.676 125.613 519.072 125.95 518.467 126.288C516.025 127.618 513.661 129.182 511.367 130.85C510.227 131.693 509.125 132.589 508.017 133.469C506.957 134.406 505.844 135.281 504.837 136.257C504.324 136.736 503.812 137.212 503.304 137.686C502.81 138.176 502.318 138.663 501.829 139.148C500.834 140.104 499.925 141.118 499.004 142.095C497.206 144.087 495.538 146.085 494.037 148.047C492.512 149.995 491.18 151.921 489.981 153.725C487.603 157.345 485.892 160.542 484.755 162.808C483.615 165.08 483.096 166.428 483.096 166.428C483.04 166.575 482.874 166.649 482.727 166.592C482.59 166.539 482.517 166.392 482.553 166.254L482.552 166.249Z" fill="#FFB74D"/>
<path d="M465.726 220.008C465.726 220.008 466.749 218.83 468.683 216.925C469.645 215.965 470.845 214.834 472.264 213.58C473.671 212.314 475.312 210.945 477.122 209.472C478.949 208.023 480.947 206.468 483.13 204.916C485.302 203.347 487.662 201.789 490.148 200.242C492.63 198.688 495.254 197.171 497.98 195.733C499.337 195.003 500.737 194.331 502.129 193.621C503.545 192.968 504.953 192.275 506.392 191.648C509.263 190.385 512.154 189.143 515.055 188.047C515.781 187.771 516.503 187.497 517.222 187.224C517.943 186.956 518.674 186.73 519.396 186.49C520.119 186.253 520.837 186.013 521.556 185.797C522.281 185.6 523 185.403 523.714 185.209C524.432 185.03 525.143 184.852 525.848 184.676C526.556 184.51 527.265 184.385 527.964 184.248C529.363 183.984 530.731 183.726 532.081 183.573C533.426 183.398 534.732 183.222 536.002 183.114C537.277 183.027 538.503 182.931 539.683 182.869C540.86 182.8 541.998 182.822 543.072 182.806C544.149 182.813 545.165 182.786 546.125 182.86C548.043 182.968 549.705 183.058 551.072 183.243C552.439 183.416 553.508 183.578 554.234 183.7C554.96 183.827 555.347 183.894 555.347 183.894C555.505 183.922 555.611 184.072 555.583 184.23C555.562 184.349 555.471 184.438 555.359 184.463L555.347 184.465C555.347 184.465 554.964 184.549 554.244 184.705C553.525 184.855 552.474 185.06 551.142 185.289C550.476 185.387 549.742 185.548 548.945 185.712C548.15 185.861 547.289 186.023 546.37 186.195C545.452 186.348 544.482 186.568 543.46 186.775C542.439 186.988 541.363 187.173 540.249 187.416C539.137 187.675 537.977 187.912 536.782 188.17C535.582 188.408 534.36 188.75 533.093 189.021C531.825 189.29 530.54 189.651 529.218 189.967C528.558 190.126 527.89 190.286 527.215 190.448C526.543 190.62 525.865 190.795 525.181 190.971C524.494 191.134 523.8 191.299 523.102 191.464C522.412 191.658 521.709 191.83 521.003 192.007C520.296 192.183 519.586 192.361 518.871 192.539C518.159 192.734 517.445 192.928 516.727 193.124C513.849 193.892 510.965 194.832 508.116 195.873C506.69 196.391 505.29 196.976 503.879 197.522C502.492 198.124 501.093 198.691 499.733 199.316C498.374 199.942 497.019 200.554 495.702 201.204C494.373 201.832 493.079 202.492 491.811 203.152C490.532 203.794 489.315 204.497 488.1 205.148C486.911 205.842 485.727 206.491 484.603 207.169C482.334 208.495 480.244 209.844 478.324 211.107C476.421 212.393 474.687 213.596 473.193 214.718C471.692 215.833 470.404 216.836 469.355 217.675C467.253 219.356 466.134 220.402 466.134 220.402C466.019 220.509 465.838 220.504 465.731 220.388C465.63 220.285 465.631 220.117 465.726 220.008Z" fill="#FFD54F"/>
<path d="M443.797 171.961C443.797 171.961 444.556 169.613 446.075 165.577C447.583 161.537 449.908 155.828 452.971 149.091C454.508 145.725 456.228 142.101 458.144 138.312C460.056 134.521 462.189 130.58 464.486 126.549C469.084 118.491 474.488 110.154 480.537 102.251C483.534 98.2775 486.703 94.424 489.978 90.7454C493.247 87.0632 496.681 83.6058 500.241 80.5079C503.817 77.4308 507.497 74.6918 511.181 72.3916C512.109 71.8258 513.018 71.26 513.931 70.7306C514.853 70.2177 515.761 69.7132 516.655 69.2167C517.569 68.7586 518.468 68.3084 519.349 67.8661C520.246 67.4551 521.125 67.0513 521.987 66.656C522.859 66.2829 523.715 65.9247 524.557 65.5894C525.396 65.2491 526.244 64.9773 527.053 64.6805C527.86 64.3794 528.666 64.1354 529.446 63.8928C530.225 63.6488 530.977 63.4034 531.727 63.2314C534.688 62.4181 537.327 61.9693 539.496 61.6675C540.575 61.4941 541.56 61.4499 542.401 61.3607C543.242 61.2687 543.967 61.2558 544.55 61.2359C545.716 61.2038 546.338 61.1866 546.338 61.1866C546.496 61.1823 546.628 61.3072 546.632 61.4649C546.636 61.599 546.547 61.7146 546.423 61.7488L546.41 61.7524C546.41 61.7524 545.817 61.9179 544.704 62.229C543.591 62.5137 541.977 63.0095 539.954 63.6624C538.948 64.0184 537.828 64.363 536.642 64.8467C536.047 65.0722 535.427 65.3069 534.785 65.5502C534.152 65.8191 533.497 66.0974 532.82 66.3849C532.142 66.6625 531.46 66.9971 530.75 67.3139C530.041 67.6356 529.312 67.9602 528.584 68.342C527.109 69.0611 525.599 69.8966 524.021 70.7463C523.244 71.1965 522.452 71.6567 521.645 72.1255C520.854 72.6213 520.049 73.1264 519.229 73.6408C518.421 74.171 517.599 74.711 516.765 75.2583C515.946 75.8283 515.114 76.4077 514.271 76.9948C510.932 79.3907 507.527 82.0818 504.119 85.0177C500.695 87.9337 497.249 91.0793 493.863 94.4219C490.472 97.7602 487.237 101.377 484.111 105.096C481.014 108.837 478.046 112.698 475.26 116.604C472.477 120.511 469.822 124.424 467.358 128.286C464.894 132.148 462.627 135.957 460.518 139.596C458.413 143.238 456.508 146.734 454.799 149.987C451.376 156.494 448.789 162.058 447.01 165.966C445.24 169.879 444.334 172.158 444.334 172.158C444.276 172.304 444.11 172.376 443.963 172.318C443.821 172.26 443.751 172.103 443.797 171.961Z" fill="#FFD54F"/>
<path d="M579.796 107.969L577.93 117.164L586.334 123.659L576.547 123.077L573.473 130.417L569.65 123.774L560.135 124.023L567.353 117.327L565.279 110.126L571.883 113.528L579.796 107.969Z" fill="#FFD54F"/>
<path d="M587.044 210.188L585.177 219.382L593.583 225.877L583.795 225.295L580.72 232.635L576.898 225.992L567.383 226.241L574.601 219.545L572.527 212.344L579.13 215.746L587.044 210.188Z" fill="#FFB74D"/>
<path d="M513.566 16.7363L511.7 25.9314L520.105 32.4268L510.318 31.8446L507.243 39.1847L503.421 32.5417L493.905 32.7907L501.123 26.0941L499.05 18.8938L505.653 22.2949L513.566 16.7363Z" fill="#FFB74D"/>
<path d="M607.009 142.938L606.091 147.457L610.223 150.65L605.412 150.364L603.901 153.972L602.021 150.706L597.344 150.829L600.892 147.537L599.873 143.998L603.119 145.67L607.009 142.938Z" fill="#FFB74D"/>
<path d="M597.975 94.3623L597.059 98.8821L601.19 102.075L596.379 101.788L594.868 105.397L592.989 102.131L588.312 102.253L591.86 98.962L590.84 95.4225L594.086 97.0949L597.975 94.3623Z" fill="#FFD54F"/>
<path d="M580.144 185.041L579.227 189.561L583.359 192.754L578.547 192.467L577.036 196.076L575.157 192.811L570.48 192.933L574.028 189.641L573.008 186.102L576.255 187.774L580.144 185.041Z" fill="#FFD54F"/>
<path d="M558.79 68.6123L557.872 73.1321L562.004 76.3248L557.193 76.0387L555.682 79.6467L553.803 76.3819L549.125 76.5039L552.673 73.212L551.654 69.6725L554.9 71.3449L558.79 68.6123Z" fill="#FFD54F"/>
<path d="M573.422 27.0234L572.505 31.5432L576.636 34.736L571.825 34.4499L570.314 38.0579L568.435 34.7931L563.758 34.9151L567.306 31.6231L566.287 28.0836L569.532 29.756L573.422 27.0234Z" fill="#FFD54F"/>
<path d="M13.5102 81.0537L12.5926 85.5735L16.7243 88.7663L11.9134 88.4802L10.4023 92.0881L8.52305 88.8233L3.84558 88.9453L7.39364 85.6534L6.37481 82.1139L9.62036 83.7863L13.5102 81.0537Z" fill="#FFD54F"/>
<path d="M9.66458 48.2275L8.74707 52.7473L12.8787 55.9401L8.06713 55.6533L6.55673 59.262L4.67747 55.9965L0 56.1185L3.54806 52.8272L2.52852 49.2878L5.77478 50.9594L9.66458 48.2275Z" fill="#FFD54F"/>
</svg>
