<svg width="42" height="42" viewBox="0 0 42 42" fill="none" xmlns="http://www.w3.org/2000/svg">
<path fill-rule="evenodd" clip-rule="evenodd" d="M20.5972 0C21.1495 0 21.5972 0.447715 21.5972 1V5.89823C21.5972 6.45051 21.1495 6.89823 20.5972 6.89823C20.045 6.89823 19.5972 6.45051 19.5972 5.89823V1C19.5972 0.447715 20.045 0 20.5972 0ZM20.5972 28.3894C24.9047 28.3894 28.3958 24.8984 28.3958 20.5929C28.3958 16.2875 24.9047 12.7965 20.5972 12.7965C16.2898 12.7965 12.7986 16.2875 12.7986 20.5929C12.7986 24.8984 16.2898 28.3894 20.5972 28.3894ZM20.5972 30.3894C26.0089 30.3894 30.3958 26.0034 30.3958 20.5929C30.3958 15.1825 26.0089 10.7965 20.5972 10.7965C15.1856 10.7965 10.7986 15.1825 10.7986 20.5929C10.7986 26.0034 15.1856 30.3894 20.5972 30.3894ZM21.5972 35.2882C21.5972 34.7359 21.1495 34.2882 20.5972 34.2882C20.045 34.2882 19.5972 34.7359 19.5972 35.2882V40.1864C19.5972 40.7387 20.045 41.1864 20.5972 41.1864C21.1495 41.1864 21.5972 40.7387 21.5972 40.1864V35.2882ZM41.1943 20.593C41.1943 21.1453 40.7466 21.593 40.1943 21.593H35.295C34.7427 21.593 34.295 21.1453 34.295 20.593C34.295 20.0407 34.7427 19.593 35.295 19.593H40.1943C40.7466 19.593 41.1943 20.0407 41.1943 20.593ZM5.8993 21.593C6.45158 21.593 6.8993 21.1453 6.8993 20.593C6.8993 20.0407 6.45158 19.593 5.8993 19.593H1C0.447715 19.593 2.23517e-08 20.0407 0 20.593C-2.23517e-08 21.1453 0.447715 21.593 1 21.593H5.8993ZM35.1616 6.03165C35.5522 6.42213 35.5522 7.05523 35.1616 7.44571L31.6973 10.9093C31.3067 11.2998 30.6735 11.2998 30.2829 10.9093C29.8924 10.5188 29.8924 9.8857 30.2829 9.49522L33.7472 6.03165C34.1378 5.64117 34.771 5.64117 35.1616 6.03165ZM10.9114 31.6907C11.3019 31.3003 11.3019 30.6672 10.9114 30.2767C10.5208 29.8862 9.88757 29.8862 9.49701 30.2767L6.03268 33.7403C5.64212 34.1307 5.64212 34.7638 6.03268 35.1543C6.42325 35.5448 7.05648 35.5448 7.44705 35.1543L10.9114 31.6907ZM35.1616 35.1539C34.771 35.5444 34.1378 35.5444 33.7472 35.1539L30.2829 31.6903C29.8924 31.2998 29.8924 30.6667 30.2829 30.2763C30.6735 29.8858 31.3067 29.8858 31.6973 30.2763L35.1616 33.7398C35.5522 34.1303 35.5522 34.7634 35.1616 35.1539ZM9.49701 10.9088C9.88757 11.2993 10.5208 11.2993 10.9114 10.9088C11.3019 10.5184 11.3019 9.88527 10.9114 9.49478L7.44705 6.03121C7.05648 5.64073 6.42325 5.64073 6.03268 6.03121C5.64212 6.4217 5.64212 7.05479 6.03268 7.44527L9.49701 10.9088Z" fill="#222222"/>
</svg>
